<?xml version="1.0" standalone="no"?>
<!DOCTYPE svg PUBLIC "-//W3C//DTD SVG 20010904//EN"
 "http://www.w3.org/TR/2001/REC-SVG-20010904/DTD/svg10.dtd">
<svg version="1.0" xmlns="http://www.w3.org/2000/svg"
 width="700.000000pt" height="700.000000pt" viewBox="0 0 700.000000 700.000000"
 preserveAspectRatio="xMidYMid meet">
<metadata>
Created by potrace 1.14, written by Peter Selinger 2001-2017
</metadata>
<g transform="translate(0.000000,700.000000) scale(0.100000,-0.100000)"
fill="#000000" stroke="none">
<path d="M5246 6338 c-17 -27 -248 -417 -319 -538 -27 -47 -57 -96 -65 -110
-14 -24 -13 -30 28 -100 23 -41 54 -95 68 -120 135 -240 201 -358 240 -427
l46 -83 135 -1 c75 0 256 -2 403 -4 l268 -3 55 91 c31 51 60 99 65 107 53 89
259 438 273 462 17 29 17 35 4 62 -21 44 -367 659 -377 669 -4 5 -188 11 -408
13 l-401 4 -15 -22z"/>
<path d="M3678 4542 c-34 -59 -68 -116 -74 -127 -9 -16 -181 -305 -257 -433
-13 -22 -16 -36 -9 -45 9 -11 29 -47 95 -167 17 -30 41 -72 54 -92 13 -21 23
-40 23 -42 0 -2 18 -35 39 -73 44 -76 82 -145 139 -245 l37 -68 75 -1 c41 0
224 -2 405 -4 l331 -4 28 47 c16 26 40 67 54 92 13 25 34 61 47 80 12 19 61
100 107 180 47 80 98 167 114 193 70 117 67 96 25 168 -21 35 -51 89 -68 119
-33 61 -128 228 -155 275 -19 33 -83 148 -110 201 -10 18 -22 35 -27 38 -5 4
-190 8 -410 11 l-400 4 -63 -107z"/>
<path d="M935 3017 c-17 -28 -162 -271 -187 -316 -10 -18 -61 -104 -113 -191
-92 -153 -105 -183 -86 -194 5 -3 18 -23 29 -43 24 -47 30 -59 208 -374 l145
-257 38 -3 c21 -2 204 -4 407 -4 l368 0 202 343 c139 235 201 348 197 360 -4
9 -41 78 -83 152 -42 74 -79 142 -83 150 -4 8 -13 24 -20 35 -7 11 -42 72 -77
135 -36 63 -70 124 -77 135 -6 11 -19 35 -27 53 l-15 32 -88 1 c-48 0 -231 2
-406 4 -316 3 -318 3 -332 -18z"/>
<path d="M3724 3013 c-6 -7 -42 -63 -79 -125 -36 -62 -71 -120 -76 -128 -5 -8
-65 -109 -133 -224 l-123 -210 32 -55 c18 -31 44 -76 57 -101 14 -25 38 -67
53 -95 15 -27 31 -54 35 -60 4 -5 20 -32 35 -60 15 -27 63 -114 106 -191 l80
-142 207 -2 c671 -6 602 -8 615 17 18 34 193 330 238 402 21 34 39 65 39 67 0
1 27 48 61 104 l61 100 -20 33 c-11 17 -33 57 -50 87 -71 130 -323 574 -328
579 -2 3 -143 7 -312 8 -169 2 -347 4 -396 6 -61 2 -93 -2 -102 -10z"/>
<path d="M2307 2178 c-34 -54 -183 -306 -198 -333 -9 -16 -58 -99 -108 -183
-50 -84 -91 -155 -91 -156 0 -2 35 -66 78 -142 44 -77 90 -159 104 -184 14
-25 56 -99 93 -165 37 -66 80 -141 94 -167 l26 -48 145 -1 c80 0 262 -1 405
-2 l259 -2 148 250 c82 138 173 292 203 342 30 51 55 97 55 102 0 5 -22 48
-50 96 -27 48 -50 88 -50 91 0 2 -13 25 -28 51 -16 27 -82 141 -146 256 -64
114 -120 207 -124 208 -4 0 -186 2 -404 5 l-397 5 -14 -23z"/>
</g>
</svg>
