<?xml version="1.0" standalone="no"?>
<!DOCTYPE svg PUBLIC "-//W3C//DTD SVG 20010904//EN"
 "http://www.w3.org/TR/2001/REC-SVG-20010904/DTD/svg10.dtd">
<svg version="1.0" xmlns="http://www.w3.org/2000/svg"
 width="1072.000000pt" height="1072.000000pt" viewBox="0 0 1072.000000 1072.000000"
 preserveAspectRatio="xMidYMid meet">
<metadata>
Created by potrace 1.14, written by Peter Selinger 2001-2017
</metadata>
<g transform="translate(0.000000,1072.000000) scale(0.100000,-0.100000)"
fill="#000000" stroke="none">
<path d="M5279 10697 c-39 -26 -79 -97 -79 -142 l0 -30 -340 -81 c-327 -77
-341 -80 -357 -62 -31 35 -88 17 -106 -33 -3 -11 -36 -23 -99 -38 -51 -12
-336 -79 -633 -150 l-540 -128 -25 29 c-16 18 -38 31 -62 35 -33 5 -41 2 -73
-30 -33 -33 -36 -41 -33 -83 l3 -47 -245 -203 c-135 -112 -258 -215 -275 -229
-16 -14 -237 -200 -490 -412 -253 -212 -467 -392 -476 -400 -14 -12 -22 -10
-60 12 -70 40 -144 31 -203 -23 -34 -33 -56 -80 -56 -124 0 -38 35 -114 58
-128 10 -5 22 -13 29 -18 9 -6 -63 -193 -270 -697 l-282 -689 -83 -68 c-68
-55 -88 -67 -108 -62 -35 9 -82 -14 -100 -49 -32 -60 11 -137 77 -137 23 0 29
-6 39 -36 7 -19 10 -44 7 -55 -3 -10 -69 -176 -148 -368 l-143 -350 -53 -27
c-63 -32 -83 -56 -83 -102 0 -42 46 -92 84 -92 14 0 26 -3 26 -6 0 -4 155
-656 345 -1451 190 -794 345 -1450 345 -1457 0 -8 -11 -17 -25 -20 -26 -7 -55
-51 -55 -85 0 -61 66 -111 121 -92 l29 10 452 -545 c413 -497 452 -547 450
-577 -4 -48 28 -75 70 -59 29 11 52 -1 637 -332 525 -299 619 -355 704 -426
83 -70 97 -86 91 -104 -39 -117 77 -244 199 -217 49 12 101 52 117 90 7 17 18
31 24 31 10 0 1476 -287 1586 -311 32 -7 49 -16 55 -32 7 -16 20 -23 48 -25
34 -3 39 0 49 26 11 28 19 31 582 191 553 157 571 161 586 142 20 -25 53 -41
84 -41 33 0 82 43 89 78 l6 29 248 50 c684 141 722 147 741 129 23 -20 65 -21
81 -2 7 8 13 27 14 43 3 31 -45 -5 735 554 l363 261 35 -17 c44 -21 87 -12
114 22 32 41 35 69 11 109 -21 35 -21 38 -5 63 10 14 181 243 381 508 307 408
368 483 388 483 27 0 65 31 65 53 0 7 -7 22 -15 34 -13 19 1 60 206 569 122
302 223 554 226 560 2 7 21 14 42 18 79 12 114 104 62 160 -14 14 -31 26 -38
26 -10 0 -12 9 -8 33 3 17 41 317 85 666 44 349 81 635 83 636 1 1 12 8 24 14
31 16 40 57 18 81 -10 11 -24 20 -30 20 -16 0 -11 -29 -90 558 l-67 494 23 24
c50 53 22 138 -51 153 -31 6 -43 28 -457 846 -325 640 -426 848 -424 872 2 33
-19 53 -51 50 -10 -1 -212 189 -482 451 -401 390 -464 456 -456 472 17 32 11
77 -14 107 -20 23 -32 28 -69 28 -30 0 -52 -6 -66 -19 -21 -19 -22 -19 -224
79 -810 395 -964 473 -970 494 -7 28 -33 37 -62 21 -19 -10 -51 -6 -210 29
-203 44 -255 66 -255 108 0 14 -13 37 -30 55 -25 24 -36 29 -58 23 -37 -9 -64
-37 -65 -69 -1 -14 -4 -26 -6 -26 -6 0 -934 201 -952 206 -10 3 -16 17 -17 40
-2 51 -30 102 -71 130 -49 33 -143 34 -192 1z m-58 -314 l-36 -41 -260 0
c-424 0 -424 0 -44 89 l324 76 26 -41 26 -41 -36 -42z m559 28 l235 -79 -145
-1 -145 -1 -100 66 c-55 37 -102 68 -104 70 -5 4 9 24 17 24 4 0 113 -36 242
-79z m41 39 c101 -22 267 -58 369 -80 102 -22 190 -42 195 -45 6 -3 -60 -3
-145 -1 l-155 4 -235 80 c-129 44 -230 81 -224 81 7 1 94 -17 195 -39z m-216
-60 l90 -60 -65 0 -66 0 -38 50 c-33 43 -40 70 -18 70 4 0 48 -27 97 -60z
m-95 -20 l32 -40 -89 0 c-48 0 -111 3 -140 6 l-52 7 15 29 c14 26 18 29 47 22
40 -10 94 -7 116 6 27 16 38 11 71 -30z m-255 0 c-9 -16 -23 -30 -32 -30 -13
0 -10 7 12 30 16 17 30 30 32 30 2 0 -3 -13 -12 -30z m-274 -49 l177 -6 -122
-132 c-66 -72 -126 -130 -132 -128 -10 3 -344 245 -368 266 -11 10 175 10 445
0z m239 -6 c0 -10 -163 -285 -172 -291 -6 -4 -26 -10 -44 -14 -26 -6 -40 -4
-56 10 l-22 18 89 96 c50 54 107 117 129 142 21 24 47 44 57 44 10 0 19 -2 19
-5z m302 -1 c36 -6 65 -35 160 -160 6 -8 -79 -28 -286 -69 -162 -31 -300 -55
-305 -54 -6 2 27 68 72 146 l82 143 120 0 c66 0 137 -3 157 -6z m-1232 -235
c-72 -118 -137 -219 -143 -225 -7 -7 -131 -34 -275 -62 l-264 -51 -126 60
-127 61 30 14 c125 60 1022 430 1028 424 4 -3 -51 -103 -123 -221z m398 110
c92 -67 176 -130 187 -141 19 -18 19 -18 -5 -43 -22 -21 -65 -32 -360 -89
-184 -36 -335 -64 -336 -63 -1 1 56 97 127 212 117 190 131 210 158 213 16 2
35 10 41 18 7 8 14 14 17 14 2 0 79 -55 171 -121z m1123 60 c50 -33 89 -62 87
-64 -3 -3 -168 -35 -181 -35 -7 0 -127 146 -127 154 0 3 29 6 65 6 64 0 68 -2
156 -61z m359 32 c98 -31 105 -27 -102 -66 l-138 -26 -77 52 c-43 28 -82 56
-87 60 -6 5 62 9 155 9 151 -1 170 -3 249 -29z m-1841 15 c-10 -10 -987 -416
-1001 -416 -8 0 -58 20 -112 45 -75 35 -96 50 -96 65 0 12 6 23 13 25 14 6
1177 283 1191 284 5 1 7 -1 5 -3z m2056 -17 c-88 -19 -90 -19 -145 0 l-55 19
145 0 145 0 -90 -19z m290 11 c3 -6 -1 -7 -9 -4 -18 7 -21 14 -7 14 6 0 13 -4
16 -10z m-121 -15 c15 -11 17 -22 12 -58 l-7 -45 -64 21 c-35 11 -61 25 -58
30 7 11 84 67 92 67 3 0 14 -7 25 -15z m-114 -25 c-26 -21 -52 -24 -85 -11
-16 7 -12 10 25 19 25 5 54 10 65 11 18 0 18 -1 -5 -19z m209 -58 c11 -29 18
-52 15 -52 -4 0 -25 5 -46 12 l-40 12 5 44 c5 45 26 72 39 49 3 -7 16 -36 27
-65z m52 68 c12 0 306 -206 343 -240 4 -5 -72 18 -170 50 l-178 57 -28 68
c-15 37 -28 70 -28 73 0 2 10 2 23 -2 12 -3 29 -6 38 -6z m-370 -31 c19 -7 38
-15 42 -19 8 -7 -195 -176 -209 -174 -3 1 -52 32 -109 70 l-103 69 157 31
c186 38 179 37 222 23z m621 -25 c89 -19 163 -36 163 -37 0 -1 6 -12 13 -24
20 -37 10 -158 -13 -150 -11 5 -309 220 -329 238 -14 13 -14 13 166 -27z
m-471 -25 c35 -12 67 -24 71 -28 6 -6 -30 -342 -38 -350 -6 -6 -325 212 -322
221 4 9 210 178 218 178 4 0 35 -10 71 -21z m-440 -85 c61 -42 109 -78 107
-79 -19 -19 -195 -155 -200 -155 -9 0 -212 256 -210 266 1 8 132 40 175 43 10
1 67 -33 128 -75z m617 24 c22 -11 44 -57 139 -297 63 -156 112 -285 110 -287
-2 -2 -87 53 -188 121 l-185 126 20 180 20 181 29 -6 c16 -3 41 -12 55 -18z
m1090 -248 c297 -146 539 -266 538 -267 -1 -2 -256 82 -567 186 l-564 188 2
69 c2 52 7 72 20 82 9 7 20 11 24 10 4 -2 250 -122 547 -268z m-1948 139 c52
-66 103 -131 113 -144 l18 -23 -131 -106 c-115 -94 -135 -106 -169 -106 -24 0
-48 -8 -64 -21 -17 -12 -32 -17 -40 -12 -40 24 -487 357 -487 362 0 4 6 16 14
27 12 15 74 31 328 81 172 33 315 61 318 62 3 0 48 -54 100 -120z m1122 25
c176 -58 198 -68 198 -87 1 -56 -56 -517 -63 -517 -5 0 -32 16 -60 36 l-52 36
-112 282 c-136 340 -127 316 -117 316 5 0 98 -30 206 -66z m-1997 -20 c13 -5
14 -8 3 -15 -7 -5 -21 -9 -32 -9 -15 0 -16 3 -6 15 14 17 13 17 35 9z m1423
-128 c140 -94 162 -113 162 -135 0 -38 -50 -452 -55 -461 -3 -4 -13 -10 -24
-13 -15 -4 -64 51 -246 279 l-227 284 23 19 c13 10 60 48 104 84 44 35 85 62
90 58 6 -3 83 -55 173 -115z m-1314 99 c-7 -17 -20 -20 -28 -6 -4 5 0 12 6 14
23 9 28 7 22 -8z m-41 -20 c18 -13 8 -32 -160 -322 l-179 -308 -90 2 c-77 1
-98 6 -157 33 -59 28 -66 34 -55 49 7 8 125 136 261 283 185 199 255 268 275
271 55 8 87 6 105 -8z m-190 -28 c-10 -13 -123 -136 -252 -274 l-233 -251 -87
40 c-47 22 -119 55 -158 73 -40 19 -73 37 -72 42 0 4 35 64 78 133 l77 125
329 66 c182 37 331 67 333 68 2 1 -5 -9 -15 -22z m-1584 -33 l84 -38 -49 -23
-49 -23 -52 56 c-29 31 -50 61 -47 66 7 11 2 12 113 -38z m4296 -229 c171
-124 311 -229 313 -233 1 -4 -139 -32 -311 -61 l-314 -54 -62 42 c-61 42 -62
44 -57 79 7 45 56 476 56 492 0 6 15 0 33 -13 17 -14 172 -127 342 -252z m843
-135 c-2 -10 -66 -25 -248 -56 -134 -24 -249 -39 -255 -35 -5 4 -154 113 -330
241 -176 128 -327 239 -334 246 -8 8 252 -75 577 -184 444 -148 592 -201 590
-212z m-3068 208 c214 -158 235 -177 241 -208 3 -19 9 -42 13 -51 6 -13 -49
-27 -361 -92 -271 -57 -387 -78 -441 -77 -41 0 -72 4 -70 9 2 4 82 144 178
309 141 243 177 299 190 292 8 -5 121 -87 250 -182z m-2313 174 c10 -6 4 -33
-23 -114 -19 -59 -41 -109 -47 -111 -7 -3 -100 -42 -207 -86 -107 -45 -199
-80 -205 -79 -10 3 452 398 465 398 3 0 11 -4 17 -8z m158 -54 c25 -28 42 -54
38 -58 -15 -13 -215 -91 -220 -86 -3 2 8 44 24 93 28 85 31 88 64 94 19 4 37
7 41 8 3 0 27 -22 53 -51z m321 -75 l119 -57 -55 -13 c-30 -7 -88 -18 -127
-25 l-73 -12 -50 55 c-27 30 -49 57 -50 60 0 7 88 47 106 48 6 1 65 -25 130
-56z m2926 -563 c-13 -22 -24 -30 -46 -30 -66 0 -561 42 -567 48 -3 4 -22 51
-44 106 -36 95 -37 100 -21 126 21 37 20 82 -3 112 l-19 24 131 106 130 106
228 -284 228 -285 -17 -29z m-2255 583 c-3 -5 -37 -61 -76 -125 -66 -107 -74
-116 -94 -108 -12 4 -89 40 -171 78 l-149 71 39 7 c22 4 125 24 229 44 204 41
229 44 222 33z m-845 -135 c-31 -13 -362 -71 -368 -65 -3 3 2 22 12 43 17 33
31 42 144 89 l125 53 52 -56 c43 -47 49 -58 35 -64z m3684 -285 l42 -100 -212
-37 c-116 -20 -219 -36 -228 -36 -9 0 -19 9 -23 19 -3 11 -19 26 -35 33 -17 7
-30 21 -30 30 0 9 11 112 25 228 14 116 25 216 25 221 0 6 89 -50 198 -124
l197 -133 41 -101z m-3176 244 l179 -83 -51 -83 -51 -83 -136 7 c-74 4 -143
10 -153 14 -18 6 -240 252 -234 258 4 5 226 51 249 52 9 1 98 -36 197 -82z
m-890 -1 c-6 -20 -12 -36 -13 -36 -1 0 -60 -11 -131 -25 -71 -14 -130 -24
-132 -22 -4 4 280 124 284 121 2 -2 -1 -19 -8 -38z m528 -98 c60 -68 109 -124
107 -126 -2 -3 -669 48 -671 51 0 1 8 29 18 63 l19 60 182 36 c100 20 194 36
209 37 22 1 45 -20 136 -121z m-554 20 c-23 -73 -32 -93 -45 -93 -8 0 -67 4
-132 8 -116 8 -177 21 -163 35 7 6 302 69 334 71 9 1 11 -6 6 -21z m1268 -84
c79 -36 146 -69 151 -73 4 -4 -2 -16 -13 -26 -20 -18 -29 -18 -203 -6 -100 7
-183 14 -185 16 -5 5 89 155 98 155 5 0 73 -30 152 -66z m4226 14 c2 -9 -47
-60 -121 -126 l-123 -110 -119 87 c-87 63 -113 87 -99 90 124 24 441 78 449
76 6 -1 11 -9 13 -17z m-5688 -63 c68 -25 125 -47 128 -49 2 -3 -24 -91 -58
-197 -40 -125 -65 -188 -70 -179 -4 8 -45 99 -90 203 -78 176 -82 188 -67 205
10 10 17 25 17 34 0 12 8 28 15 28 1 0 57 -20 125 -45z m4380 -41 c0 -41 -13
-84 -25 -84 -10 0 -32 48 -71 154 -5 14 4 11 44 -15 35 -23 52 -41 52 -55z
m-4282 66 c46 0 52 -2 52 -20 0 -33 -20 -32 -105 0 -63 24 -72 30 -40 26 22
-3 64 -6 93 -6z m2816 -3 c17 -13 15 -18 -29 -96 -27 -45 -51 -84 -55 -86 -9
-5 -609 41 -615 47 -4 4 632 144 666 147 8 0 23 -5 33 -12z m2820 0 c17 -12
17 -20 -4 -172 -31 -235 -15 -222 -149 -123 -63 46 -115 86 -115 90 -1 7 235
218 244 218 3 0 14 -6 24 -13z m629 -501 c289 -283 407 -405 407 -420 0 -12 5
-27 12 -34 9 -9 8 -70 -1 -259 -16 -328 -12 -310 -66 -309 l-43 1 -188 340
c-454 823 -654 1188 -654 1193 0 8 21 -12 533 -512z m-6614 443 c6 -3 -32
-168 -98 -419 l-107 -415 -70 -2 c-38 -2 -205 0 -372 5 l-303 7 -17 50 -17 50
469 393 469 393 18 -29 c9 -17 22 -31 28 -33z m741 31 c140 -11 285 -22 323
-26 l67 -7 72 -81 c40 -44 81 -91 91 -103 19 -21 19 -24 3 -47 -9 -15 -22 -23
-31 -20 -7 3 -27 -2 -43 -11 -29 -17 -30 -17 -413 120 -211 75 -387 140 -391
144 -4 3 -5 16 -2 29 8 27 -2 27 324 2z m2471 -72 c-14 -75 -20 -93 -34 -92
-9 0 -30 1 -47 2 l-29 2 52 90 c29 49 57 90 63 90 8 0 6 -28 -5 -92z m3264
-650 c225 -409 415 -752 422 -764 11 -17 11 -23 1 -31 -10 -8 -95 46 -320 199
l-308 210 0 196 0 196 31 25 c42 36 43 85 4 119 -20 17 -36 22 -55 19 -22 -5
-49 11 -153 89 -70 52 -127 100 -127 108 0 7 11 93 25 192 14 98 25 180 25
182 0 1 10 2 23 2 20 0 75 -94 432 -742z m-3190 637 c19 -49 34 -90 32 -91 -1
-1 -26 1 -55 3 -42 5 -52 9 -48 22 2 9 10 49 17 89 7 39 14 71 16 69 2 -2 19
-44 38 -92z m2265 0 c63 -46 116 -88 118 -93 2 -7 -139 -137 -259 -239 -14
-11 -30 -10 -110 9 -90 22 -102 28 -288 154 -107 72 -196 135 -198 140 -3 8
543 110 602 113 11 0 72 -37 135 -84z m-4232 39 c71 -4 102 -10 99 -18 -3 -6
-25 -44 -50 -83 l-44 -73 -69 78 c-106 118 -104 116 -69 109 17 -3 76 -9 133
-13z m660 -29 c4 -5 -1 -5 -11 -2 -10 4 -39 7 -64 7 -45 0 -46 1 -29 19 17 19
19 19 57 2 22 -10 43 -22 47 -26z m2759 -22 c-2 -2 -25 -7 -50 -12 -44 -8 -47
-7 -47 13 0 11 3 31 6 43 6 21 7 21 50 -10 24 -17 42 -32 41 -34z m-4581 -156
l92 -207 -67 -208 -67 -207 -149 3 c-83 2 -151 4 -151 5 -2 2 203 795 211 815
15 40 42 -2 131 -201z m634 65 c201 -71 375 -133 386 -136 14 -4 21 -14 20
-28 -1 -17 -72 -61 -384 -235 -211 -117 -387 -211 -391 -209 -4 3 -40 79 -80
169 l-73 165 67 207 c44 138 70 205 78 202 7 -3 177 -63 377 -135z m874 117
c78 -6 143 -13 145 -14 2 -2 -32 -42 -74 -88 l-78 -84 -125 -27 -126 -26 -33
32 c-18 18 -33 36 -33 41 0 5 23 47 51 93 59 98 35 92 273 73z m427 -53 c35
-15 49 -26 39 -29 -18 -7 -434 -96 -437 -94 0 1 33 38 75 83 l77 80 96 -8 c67
-5 113 -15 150 -32z m89 14 c32 0 33 -1 17 -17 -16 -16 -19 -16 -59 5 -28 15
-34 21 -18 17 14 -2 41 -5 60 -5z m90 -10 c0 -5 -12 -10 -26 -10 -14 0 -23 4
-19 10 3 6 15 10 26 10 10 0 19 -4 19 -10z m2684 -117 c94 -63 175 -119 179
-123 17 -15 -449 106 -475 124 -21 13 -28 26 -28 50 0 17 4 36 8 42 8 12 109
33 131 28 7 -3 90 -57 185 -121z m-2206 86 c200 -15 312 -27 312 -33 0 -6 -15
-36 -33 -66 l-33 -55 -228 -3 -228 -2 -159 72 c-87 40 -158 76 -159 79 0 11
143 37 180 33 19 -2 176 -13 348 -25z m1872 1 c0 -5 -2 -10 -4 -10 -3 0 -8 5
-11 10 -3 6 -1 10 4 10 6 0 11 -4 11 -10z m-21 -31 c9 -27 8 -35 -12 -60 -21
-27 -25 -29 -77 -24 -30 2 -128 10 -217 16 -90 7 -163 15 -163 19 0 4 60 17
133 30 72 12 161 28 197 35 109 22 126 20 139 -16z m-2431 3 c-1 -5 -61 -109
-132 -230 l-128 -222 -42 0 c-25 0 -62 -10 -90 -24 l-47 -24 -102 114 c-56 63
-103 119 -105 124 -2 5 32 45 75 90 l78 80 225 49 c233 50 274 57 268 43z
m222 -83 l95 -44 -110 -5 -110 -5 -103 -180 c-57 -99 -107 -184 -112 -189 -5
-5 -21 1 -38 13 -16 11 -42 25 -57 31 l-27 10 19 33 c10 17 70 120 133 229
l113 196 51 -23 c28 -12 94 -42 146 -66z m800 73 c0 -5 -5 -34 -11 -65 l-12
-57 -73 0 c-41 0 -74 3 -74 6 0 6 49 93 63 112 10 13 107 17 107 4z m137 -14
c6 -7 15 -26 21 -43 5 -16 13 -38 17 -47 6 -16 -1 -18 -85 -18 l-92 0 7 46 c3
26 9 53 12 60 7 18 107 19 120 2z m2544 -119 l75 -57 -11 -86 c-6 -47 -14 -88
-17 -91 -5 -5 -488 112 -495 119 -2 2 58 58 134 124 l136 121 51 -36 c28 -21
85 -63 127 -94z m-2212 101 c146 -12 267 -22 268 -24 4 -4 -294 -96 -311 -96
-9 0 -19 7 -22 15 -5 12 -26 15 -104 15 l-98 0 -17 43 c-9 23 -19 48 -22 55
-7 16 -8 16 306 -8z m-2302 -102 c-12 -3 -27 -6 -34 -7 -18 -2 -25 36 -11 59
13 20 13 20 40 -12 l27 -33 -22 -7z m2597 44 c4 -11 17 -25 31 -32 18 -10 23
-19 19 -39 -2 -14 -18 -145 -34 -290 -17 -146 -32 -266 -34 -268 -1 -2 -51 81
-111 184 -59 104 -130 225 -158 271 -27 46 -47 85 -44 88 4 4 303 101 319 103
4 1 9 -7 12 -17z m430 4 c158 -13 171 -16 188 -38 9 -12 17 -36 17 -53 0 -43
-74 -684 -80 -689 -2 -2 -20 -6 -39 -10 l-35 -6 -173 373 -173 373 18 32 c22
38 25 38 277 18z m-2815 -76 l-63 -71 -43 43 c-24 23 -43 45 -43 49 0 5 155
42 203 48 5 1 -20 -31 -54 -69z m3384 10 c220 -55 248 -65 305 -103 34 -23 62
-45 62 -48 0 -10 -491 -441 -496 -436 -3 2 -43 134 -89 293 -70 241 -82 291
-71 304 7 8 16 23 19 33 4 9 11 17 17 17 6 0 120 -27 253 -60z m-713 -352 c95
-205 174 -376 176 -379 2 -3 -14 -22 -34 -42 l-37 -37 -160 75 -160 74 -3 38
c-5 49 18 624 24 635 3 4 9 8 13 8 5 0 86 -168 181 -372z m-2798 309 l46 -53
-28 -34 -28 -34 -70 53 -71 52 17 29 c15 26 25 31 78 39 5 0 31 -23 56 -52z
m3267 -225 c41 -141 80 -276 87 -299 l13 -43 -90 -78 -90 -79 -46 24 c-25 12
-48 24 -49 26 -2 2 14 156 36 343 22 186 40 345 40 352 0 6 6 12 13 12 7 0 40
-99 86 -258z m-3475 206 c19 -8 24 -17 21 -32 -2 -12 -14 -77 -25 -146 -12
-69 -26 -139 -31 -155 -5 -17 -39 -60 -77 -97 l-67 -66 -298 5 -298 6 -15 30
c-10 19 -12 33 -6 39 11 11 753 426 764 427 4 1 18 -4 32 -11z m4859 -81 c59
-43 107 -80 107 -81 0 -2 -5 -17 -11 -33 l-10 -31 -117 30 c-64 16 -118 31
-120 33 -2 1 2 41 9 89 8 57 16 83 23 79 6 -4 59 -43 119 -86z m-2083 -208
c-6 -151 -12 -280 -13 -287 -4 -24 -39 13 -39 41 0 37 56 527 59 523 2 -2 -1
-127 -7 -277z m-2655 224 l64 -46 -96 -104 c-52 -56 -96 -103 -98 -103 -1 0
10 68 24 150 14 83 29 150 33 150 4 0 37 -21 73 -47z m3987 30 c16 -3 27 -11
25 -17 -7 -21 -36 -17 -74 9 -36 26 -37 27 -9 21 15 -4 41 -10 58 -13z m-3694
-178 c59 -67 76 -95 50 -79 -18 11 -231 165 -242 175 -6 5 1 21 18 38 l29 30
42 -47 c23 -26 70 -78 103 -117z m4269 32 c4 -4 -33 -247 -39 -252 -2 -3 -114
70 -249 161 -134 91 -251 170 -259 175 -13 8 -12 12 7 28 22 19 25 18 280 -46
142 -35 259 -65 260 -66z m-5582 -72 c37 -86 66 -157 64 -159 -2 -2 -29 -18
-61 -35 -51 -29 -63 -32 -130 -29 l-75 3 60 188 c33 103 63 187 67 187 3 0 37
-70 75 -155z m5538 -205 c5 -4 5 -26 0 -48 -7 -38 -21 -51 -198 -189 -104 -82
-219 -171 -256 -199 l-65 -50 -214 31 -215 31 -48 159 c-26 89 -44 166 -40
173 5 6 120 111 257 232 l249 219 261 -176 c144 -97 265 -179 269 -183z
m-4307 239 c68 -50 124 -92 124 -94 0 -1 -9 -22 -20 -46 -11 -26 -20 -66 -20
-98 l0 -54 -227 8 c-126 4 -229 8 -230 9 -1 0 4 31 11 68 9 45 21 76 40 99 59
70 181 198 190 199 4 0 64 -41 132 -91z m4467 10 c45 -11 99 -25 120 -30 20
-5 37 -16 37 -24 0 -23 -44 -67 -148 -147 -98 -75 -101 -77 -122 -60 l-21 17
18 133 c10 72 21 132 26 132 5 0 45 -9 90 -21z m217 -106 c0 -18 -77 -280 -89
-300 -5 -9 -22 -3 -61 23 -30 20 -59 40 -64 45 -10 8 136 223 162 238 27 16
52 13 52 -6z m-186 -140 c-26 -37 -49 -70 -51 -72 -1 -2 -14 4 -28 13 l-26 17
73 58 c40 32 75 57 76 55 2 -1 -18 -33 -44 -71z m-4880 20 c-8 -60 -13 -65
-58 -61 l-37 3 47 53 c25 28 48 52 50 52 3 0 2 -21 -2 -47z m5066 -118 c0
-148 2 -144 -54 -102 -20 14 -19 17 14 126 18 61 35 111 37 111 1 0 3 -61 3
-135z m-5820 83 c0 -4 -24 -8 -52 -8 l-53 0 40 25 c37 22 41 23 53 8 6 -9 12
-20 12 -25z m-834 -14 l191 -6 -35 -137 c-34 -130 -37 -137 -69 -152 l-33 -17
-310 127 c-171 69 -310 131 -310 138 0 6 4 23 9 36 l9 24 179 -4 c98 -2 264
-6 369 -9z m6320 -5 c3 -6 -1 -18 -10 -27 -15 -15 -16 -14 -16 11 0 27 13 36
26 16z m-5828 -8 c25 -15 -6 -89 -47 -115 -70 -44 -302 -168 -306 -165 -2 3
13 68 33 147 l37 142 135 0 c74 0 141 -4 148 -9z m87 -41 c-38 -21 -71 -38
-72 -36 -1 1 3 19 9 39 l11 37 61 0 61 0 -70 -40z m332 -105 c61 -137 62 -140
40 -147 -31 -9 -517 -10 -517 -1 0 18 53 169 64 180 6 7 52 35 101 62 89 51
91 51 170 49 l79 -3 63 -140z m521 129 c9 -2 -34 -55 -114 -139 l-127 -136
-99 3 -99 3 -60 134 c-32 73 -59 136 -59 140 0 7 536 3 558 -5z m4965 -38
c-19 -34 -127 -185 -129 -183 -2 2 2 43 8 91 10 77 15 90 41 112 28 23 30 24
57 7 16 -9 26 -21 23 -27z m-4828 2 c-3 -18 -14 -78 -24 -133 l-17 -100 -153
-3 -154 -3 33 38 c19 21 74 82 124 135 l91 98 53 0 53 0 -6 -32z m388 26 c105
-7 106 -7 118 -36 6 -16 10 -30 8 -32 -2 -2 -64 -47 -137 -100 l-133 -96 -134
0 c-135 0 -135 0 -131 23 3 12 12 63 21 112 8 50 18 100 20 113 5 21 9 22 134
22 70 0 176 -3 234 -6z m5953 -854 c232 -459 420 -838 418 -842 -3 -5 -11 -8
-17 -7 -19 1 -862 961 -860 978 1 9 5 31 9 49 4 22 1 40 -11 58 -15 24 -15 42
-1 282 9 141 16 272 16 290 0 21 4 32 12 30 6 -2 201 -380 434 -838z m-8171
692 c288 -118 310 -129 313 -153 3 -25 -26 -53 -155 -152 -8 -6 -83 55 -245
203 -219 198 -252 231 -231 229 4 0 148 -58 318 -127z m6751 82 c35 -25 64
-48 64 -51 0 -3 -26 -91 -57 -194 -65 -216 -45 -197 -188 -176 l-80 12 3 45
c11 143 25 180 107 298 43 61 81 112 83 112 2 0 33 -20 68 -46z m-1190 -248
c6 -28 5 -28 -27 -23 -19 3 -71 11 -116 18 l-83 11 0 32 c-1 17 -7 42 -15 56
-8 14 -14 28 -15 31 0 4 39 42 87 84 l87 78 38 -129 c20 -71 40 -142 44 -158z
m954 172 c-12 -91 -13 -95 -83 -200 -60 -89 -76 -107 -97 -107 -35 0 -269 35
-275 41 -3 3 99 87 227 186 127 100 234 180 236 177 2 -2 -1 -46 -8 -97z
m-6622 -114 c125 -114 228 -210 230 -214 3 -8 -257 -219 -272 -220 -5 -1 -62
136 -126 304 -116 304 -117 306 -96 320 12 8 25 15 29 15 5 1 110 -92 235
-205z m2499 161 c15 -13 41 -30 57 -36 17 -7 32 -13 34 -15 2 -1 -11 -25 -28
-53 l-32 -51 -156 0 c-97 0 -152 4 -147 9 20 19 230 170 238 171 4 0 20 -11
34 -25z m2465 -63 c133 -60 164 -81 141 -95 -9 -5 -250 27 -256 34 -12 15 -56
98 -62 118 -9 29 -17 32 177 -57z m-5318 -14 c3 -46 13 -231 21 -412 13 -267
13 -332 3 -342 -36 -33 -620 -495 -623 -492 -2 2 118 301 267 666 266 651 271
662 299 662 27 0 27 -1 33 -82z m170 -223 c64 -167 116 -309 116 -314 0 -11
-223 -191 -229 -185 -3 3 -39 690 -41 777 0 20 5 27 19 27 15 0 40 -57 135
-305z m1016 301 c0 -3 -11 -41 -25 -85 l-26 -81 -126 0 c-70 0 -123 3 -120 7
9 9 280 161 290 162 4 1 7 -1 7 -3z m6155 -58 l35 -23 0 -181 0 -181 -92 14
c-51 7 -96 14 -99 16 -5 2 82 303 104 360 8 22 10 22 52 -5z m567 -385 c56
-38 95 -70 92 -77 -4 -10 -75 -2 -297 30 -161 24 -295 44 -299 44 -5 0 -8 79
-8 175 l0 175 208 -141 c114 -78 251 -170 304 -206z m-2552 276 c47 -7 88 -15
91 -18 4 -3 10 -24 13 -46 l7 -40 -68 -34 c-65 -32 -68 -32 -81 -15 -20 29
-92 152 -92 158 0 9 36 7 130 -5z m-3620 -75 c16 -37 30 -70 30 -73 -1 -3 -39
-46 -85 -95 l-83 -89 -241 98 c-133 54 -241 104 -241 110 0 6 7 32 16 58 l16
46 76 4 c42 1 168 4 279 5 l203 2 30 -66z m105 6 c-32 -33 -60 -58 -62 -57 -1
2 -14 29 -28 60 l-25 57 87 0 87 0 -59 -60z m401 43 c-2 -10 -10 -52 -16 -93
-6 -41 -14 -83 -16 -92 -3 -9 -49 -49 -102 -88 l-97 -71 -64 3 -64 3 -43 99
c-24 54 -44 103 -44 108 0 5 28 41 61 79 l62 69 164 0 c152 0 164 -1 159 -17z
m254 13 c0 -4 -228 -172 -256 -189 -9 -5 7 137 21 181 3 9 36 12 120 12 63 0
115 -2 115 -4z m315 -107 c-36 -62 -65 -114 -65 -116 0 -2 19 -36 41 -74 24
-41 38 -74 33 -79 -5 -4 -54 -33 -109 -64 l-100 -55 -19 22 c-10 12 -29 43
-42 69 l-24 48 -161 0 -161 0 7 58 c4 31 10 62 13 69 4 6 75 61 157 121 l150
110 172 1 172 1 -64 -111z m-1685 98 c0 -17 -34 -97 -41 -97 -25 0 -189 75
-189 87 0 10 26 13 115 13 63 0 115 -1 115 -3z m5817 -92 c-5 -44 -13 -84 -17
-88 -4 -4 -25 -5 -48 -1 l-41 6 57 84 c31 46 57 82 58 81 1 -1 -3 -38 -9 -82z
m-5878 -72 c3 -2 -6 -37 -19 -78 l-24 -75 -72 122 c-41 68 -73 129 -74 135 0
10 146 -71 189 -104z m4863 102 c56 -9 104 -18 106 -20 6 -6 72 -228 72 -242
0 -10 -31 -13 -124 -13 l-123 0 -63 95 -63 96 21 22 c11 12 25 34 31 50 12 32
11 32 143 12z m-5115 -3 c7 -4 14 -65 18 -167 l8 -160 -107 99 c-58 54 -106
100 -106 102 0 6 162 134 168 134 4 0 12 -4 19 -8z m127 -147 l76 -131 -26
-77 -26 -77 -26 19 c-15 11 -39 32 -54 48 -27 28 -27 31 -34 198 -4 115 -3
167 4 160 5 -5 44 -69 86 -140z m134 98 c6 -3 12 -9 12 -13 0 -21 -19 -16 -69
15 -85 54 -83 54 57 -2z m5205 1 c94 -14 173 -27 174 -28 2 -1 -53 -46 -122
-99 -107 -84 -129 -97 -162 -97 l-38 0 -36 125 -37 125 25 0 c13 0 101 -12
196 -26z m-764 -23 l43 -40 -30 -83 -30 -83 -49 2 c-26 1 -71 5 -100 8 l-52 6
34 57 c29 50 31 59 19 76 -13 19 -9 22 54 58 37 21 67 38 68 38 0 0 20 -18 43
-39z m-3941 -185 c25 -25 -146 -38 -191 -15 -21 11 -278 168 -286 175 -2 2 -1
10 2 18 5 12 50 -3 238 -79 128 -52 234 -97 237 -99z m246 77 c20 -45 36 -87
36 -93 0 -15 -173 -9 -213 8 l-29 12 79 84 c43 47 81 81 85 78 3 -4 23 -44 42
-89z m4832 77 c76 -11 140 -22 142 -25 2 -2 -18 -35 -45 -74 l-48 -71 -229 0
c-145 0 -226 4 -220 9 37 38 232 181 246 181 9 0 79 -9 154 -20z m-876 -77
l61 -88 -118 -3 c-65 -1 -128 -7 -140 -14 -15 -7 -30 -8 -42 -2 -19 9 -18 12
11 92 l30 82 46 1 c26 0 56 4 67 9 11 5 21 9 22 9 1 1 29 -38 63 -86z m-4440
-90 c12 -11 4 -13 -55 -13 l-70 0 -40 -70 c-22 -38 -42 -70 -45 -70 -3 0 -25
34 -48 75 l-44 75 27 80 26 79 117 -71 c64 -39 124 -77 132 -85z m5568 131
c21 -6 22 -10 16 -58 -11 -84 -8 -82 -107 -76 l-88 5 48 68 c49 70 66 78 131
61z m-6180 -107 l109 -97 6 -98 c4 -53 7 -155 7 -227 0 -112 -3 -140 -25 -206
l-26 -76 -117 -26 c-64 -14 -120 -23 -124 -19 -3 4 -59 145 -124 314 l-117
308 24 19 c13 10 78 62 144 115 66 53 123 95 127 93 4 -1 56 -46 116 -100z
m6344 83 c57 -8 85 -16 83 -23 -2 -7 -25 -82 -51 -167 -25 -85 -49 -159 -51
-163 -3 -5 -32 36 -65 90 l-59 98 6 69 c8 97 14 118 34 112 9 -2 55 -10 103
-16z m-4876 -65 c-4 -25 -13 -48 -20 -51 -8 -3 -38 -4 -67 -2 l-54 3 69 52
c39 29 72 51 74 48 2 -2 1 -25 -2 -50z m5101 33 l83 -12 0 -361 0 -361 -32
-31 -33 -31 -126 219 -126 220 56 184 c48 158 59 185 75 185 11 0 57 -5 103
-12z m403 -59 c157 -23 289 -45 295 -50 6 -6 -102 -121 -285 -304 -162 -162
-298 -295 -302 -295 -10 0 -10 690 0 690 4 0 135 -18 292 -41z m-6073 -25 c-3
-3 -12 -4 -19 -1 -8 3 -5 6 6 6 11 1 17 -2 13 -5z m3782 -14 c41 -6 76 -12 78
-14 5 -4 -106 -317 -118 -331 -9 -12 -138 -60 -143 -54 -9 10 -76 150 -76 158
0 6 20 45 45 87 25 41 45 78 45 80 0 2 12 22 26 44 29 44 30 44 143 30z
m-4330 -84 l40 -69 -20 -38 c-11 -22 -24 -39 -29 -39 -6 0 -27 16 -49 35 l-39
35 19 63 c26 83 29 91 33 86 3 -2 23 -35 45 -73z m4477 66 c8 -5 -9 -44 -53
-120 -36 -62 -67 -111 -69 -109 -3 2 14 56 37 120 41 116 53 131 85 109z
m-2691 -42 c14 -27 13 -44 -11 -207 -15 -98 -28 -179 -29 -181 -2 -2 -12 1
-23 7 -19 10 -188 288 -180 296 11 11 205 114 215 114 7 1 19 -12 28 -29z
m5191 -36 c30 -13 34 -19 35 -52 0 -20 10 -260 23 -532 13 -272 20 -498 17
-501 -3 -4 -132 -14 -286 -23 -154 -9 -297 -19 -318 -22 l-38 -6 32 57 c37 66
40 52 -57 222 l-64 112 0 98 -1 98 303 296 c233 228 305 293 312 282 4 -8 23
-21 42 -29z m-7119 -46 l23 -24 -44 -130 c-44 -127 -44 -128 -45 -78 -1 28 -4
106 -8 174 l-6 124 29 -21 c16 -12 39 -32 51 -45z m7650 -437 l431 -483 -13
-32 c-7 -17 -19 -32 -27 -34 -39 -8 -564 -39 -569 -33 -12 12 -280 1051 -274
1062 4 5 10 9 14 7 5 -2 202 -221 438 -487z m-8170 187 c61 -161 114 -300 117
-308 5 -13 -33 -24 -213 -64 -121 -27 -224 -50 -228 -50 -8 -1 -14 79 -27 379
l-7 150 117 93 c64 50 120 92 123 92 4 0 57 -132 118 -292z m2526 202 c13 -25
60 -106 102 -180 123 -213 129 -223 118 -219 -144 55 -307 127 -311 137 -2 7
6 85 18 173 26 174 26 174 73 89z m5311 -465 l133 -510 -56 -6 c-31 -4 -83 -7
-117 -8 l-60 -1 -18 408 c-25 581 -27 648 -21 637 3 -5 65 -239 139 -520z
m-7211 417 c18 -19 16 -24 -69 -171 -48 -83 -91 -151 -95 -151 -20 0 -6 70 43
220 l52 159 25 -19 c14 -10 34 -27 44 -38z m4132 -101 c19 -39 31 -73 25 -76
-5 -3 -27 -12 -49 -20 l-41 -14 0 77 c0 66 9 102 27 102 1 0 18 -31 38 -69z
m-5134 17 c8 -136 24 -494 22 -497 -4 -6 -737 -170 -742 -166 -2 2 11 39 28
82 l31 78 143 112 c78 62 223 177 322 257 99 80 183 145 188 145 4 1 7 -5 8
-11z m5049 -82 c0 -54 -1 -55 -36 -66 -19 -7 -37 -10 -40 -7 -5 5 64 127 71
127 3 0 5 -24 5 -54z m251 -13 c-11 -21 -29 -51 -40 -67 l-19 -29 -22 43 c-12
23 -19 44 -17 47 6 5 99 42 110 43 4 0 -1 -17 -12 -37z m-95 -66 l26 -54 -87
-149 c-48 -82 -89 -151 -91 -153 -1 -2 0 77 3 175 3 112 10 184 17 191 10 11
79 40 99 42 4 1 19 -23 33 -52z m-2230 -66 c161 -65 170 -71 196 -112 15 -23
26 -44 25 -46 -2 -1 -79 14 -170 34 l-167 36 -30 52 c-25 44 -40 105 -26 105
2 0 79 -31 172 -69z m2069 -8 c-3 -43 -7 -134 -10 -203 l-5 -125 -66 -115
c-57 -97 -65 -117 -54 -133 6 -10 9 -21 6 -24 -3 -3 -131 32 -285 78 l-279 84
161 5 162 5 132 230 c122 214 134 232 175 252 67 34 68 33 63 -54z m-4235 -64
c-21 -49 -29 -32 -12 23 13 39 18 47 20 29 2 -12 -2 -36 -8 -52z m2236 -74
c174 -39 175 -40 223 -129 l24 -45 -61 -68 c-119 -135 -118 -135 -189 -13 -84
143 -163 282 -163 286 0 6 -7 7 166 -31z m4294 -42 l0 -68 -26 43 -26 44 23
24 c12 13 24 24 26 24 2 0 3 -30 3 -67z m-6590 53 c0 -15 -37 -101 -65 -151
-32 -58 -36 -61 -67 -57 -31 3 -35 8 -61 79 -16 41 -26 78 -22 81 11 12 215
57 215 48z m-211 -131 l31 -79 -22 -23 c-11 -12 -24 -39 -27 -59 -6 -35 -11
-39 -229 -161 -123 -69 -225 -124 -227 -122 -2 2 -6 99 -10 214 l-8 211 229
50 c126 28 230 51 230 50 1 -1 16 -37 33 -81z m-505 -202 c4 -98 9 -195 12
-215 5 -34 3 -39 -26 -56 l-31 -19 -137 44 c-75 24 -243 78 -374 120 l-236 76
11 26 c6 14 11 27 12 28 0 1 72 18 160 37 88 20 257 58 375 85 118 27 218 50
221 50 4 1 10 -79 13 -176z m-758 82 c-18 -44 -30 -61 -46 -63 -21 -3 -52 24
-47 41 4 12 112 96 115 88 1 -4 -9 -34 -22 -66z m4074 -41 c0 -6 -35 -19 -77
-29 -43 -10 -85 -20 -93 -23 -8 -3 16 27 55 67 l69 71 23 -37 c13 -21 23 -43
23 -49z m80 -46 c0 -18 -3 -77 -7 -130 l-6 -98 -28 0 c-24 0 -34 -12 -90 -111
-85 -153 -88 -155 -183 -171 l-78 -12 -39 44 c-21 25 -39 50 -39 56 0 6 41 82
91 168 75 130 88 160 78 172 -22 27 15 47 144 81 159 41 157 41 157 1z m231
-4 l22 -36 -94 -94 c-81 -81 -98 -94 -127 -94 -31 0 -33 2 -28 28 3 15 8 73
12 130 l7 102 92 0 93 0 23 -36z m69 11 c-13 -14 -27 -25 -31 -25 -4 0 -14 11
-23 25 l-16 25 47 0 46 0 -23 -25z m238 -100 c34 -69 62 -127 62 -130 0 -3
-43 -5 -95 -5 l-94 0 -65 92 -66 92 37 38 c35 36 41 38 98 38 l60 0 63 -125z
m626 28 l330 -98 -140 -29 c-131 -27 -156 -29 -434 -33 l-295 -4 -62 125 c-35
70 -63 128 -63 131 0 3 75 5 168 5 l167 1 329 -98z m-5354 63 c0 -2 -3 -11 -6
-20 -9 -23 -24 -20 -24 4 0 11 7 20 15 20 8 0 15 -2 15 -4z m1300 -21 c9 -11
9 -22 -1 -48 -11 -33 -10 -38 31 -108 43 -74 43 -74 48 -193 4 -98 2 -118 -9
-114 -8 3 -132 43 -276 89 -344 110 -342 92 -40 262 122 70 225 126 228 127 4
0 12 -7 19 -15z m-1339 -72 c-10 -17 -10 -16 -11 3 0 23 13 41 18 25 2 -6 -1
-18 -7 -28z m4553 -42 c31 -43 56 -82 56 -85 0 -3 -66 -6 -147 -6 l-147 0 90
85 c49 46 90 84 91 85 1 0 27 -36 57 -79z m-4154 -42 c190 -61 348 -114 352
-118 7 -6 -432 -255 -448 -255 -8 0 -277 381 -290 412 -8 16 15 72 29 72 6 0
167 -50 357 -111z m-433 59 c-3 -8 -6 -5 -6 6 -1 11 2 17 5 13 3 -3 4 -12 1
-19z m9801 -33 c11 -25 2 -38 -220 -291 -128 -146 -234 -261 -235 -257 -10 31
-132 502 -135 518 -3 19 7 21 227 36 344 24 349 24 363 -6z m-9614 -224 c100
-147 124 -187 114 -196 -25 -23 -127 -75 -131 -68 -7 13 -135 406 -141 436 -9
37 2 54 19 30 7 -10 69 -101 139 -202z m9070 -59 c38 -147 71 -272 73 -278 2
-7 -62 -87 -142 -178 -125 -143 -150 -166 -168 -160 -12 3 -25 9 -28 13 -6 5
-40 717 -39 818 l0 42 53 4 c28 2 81 4 117 5 l65 2 69 -268z m-3463 164 c-3
-13 -135 -206 -141 -206 -3 0 -37 56 -76 125 l-72 124 37 7 c20 4 76 14 126
24 l90 17 19 -41 c11 -23 18 -45 17 -50z m3139 52 c0 -24 7 -182 15 -353 20
-431 20 -470 7 -470 -15 0 -675 805 -667 813 4 4 145 17 313 28 169 12 313 22
320 23 8 1 12 -14 12 -41z m930 10 c0 -5 -66 -199 -146 -431 -81 -232 -158
-455 -171 -495 -22 -63 -28 -73 -47 -70 -19 3 -28 29 -83 237 -51 191 -60 237
-50 251 7 9 113 131 236 272 173 198 228 254 242 251 11 -3 19 -9 19 -15z m54
-25 c3 -16 35 -248 71 -516 63 -464 66 -490 49 -508 -17 -19 -42 -19 -121 -3
l-23 4 0 525 c0 313 4 525 9 525 5 0 12 -12 15 -27z m-9890 -203 c9 -118 18
-229 20 -247 5 -32 4 -32 -150 -119 -85 -47 -157 -84 -159 -82 -4 4 56 154
262 656 3 7 7 12 8 10 2 -2 10 -100 19 -218z m8567 -207 c180 -219 327 -402
328 -408 9 -41 -45 -14 -384 191 -198 119 -366 223 -374 230 -12 11 -12 31 -3
123 11 102 15 116 54 186 24 41 45 75 48 75 3 0 152 -179 331 -397z m1277
-609 c-2 -1 -75 8 -163 20 -142 20 -160 25 -158 41 1 10 73 225 160 476 l158
458 3 -496 c1 -273 1 -497 0 -499z m-8988 961 c0 -9 -6 -12 -15 -9 -8 4 -12
10 -9 15 8 14 24 10 24 -6z m4973 -14 c12 -21 25 -97 43 -267 l26 -237 -26
-25 c-14 -14 -27 -24 -30 -21 -12 13 -199 346 -199 354 0 19 143 225 156 225
7 0 20 -13 30 -29z m-4319 -107 c37 -64 66 -117 64 -118 -2 -2 -31 6 -65 16
l-63 19 0 53 c0 29 -3 74 -6 100 -4 25 -4 46 -2 46 3 0 36 -52 72 -116z m-661
87 c8 -8 60 -1025 55 -1072 -2 -22 -55 49 -288 388 -157 229 -288 420 -292
427 -4 7 80 60 230 144 236 132 264 143 295 113z m574 -185 c6 -5 42 -1088 36
-1098 -2 -4 -74 -43 -160 -89 -122 -64 -158 -78 -164 -68 -4 8 -53 79 -108
159 -72 104 -101 154 -101 175 0 17 -11 264 -25 550 -14 286 -25 527 -25 536
0 14 50 0 271 -71 149 -49 273 -91 276 -94z m-1303 -148 c-3 -4 -22 -17 -43
-28 l-38 -19 -7 87 c-3 48 -8 132 -11 187 l-5 100 55 -159 c30 -87 52 -163 49
-168z m5840 125 c42 -73 76 -137 76 -142 0 -12 -113 -111 -119 -105 -3 3 -15
92 -26 199 -11 107 -17 191 -14 187 4 -4 42 -66 83 -139z m-2137 10 c-6 -5
-137 -31 -137 -26 0 3 5 12 46 79 l16 26 39 -38 c21 -21 37 -39 36 -41z m4292
20 c-4 -32 -8 -70 -8 -85 l-1 -27 -30 17 c-16 9 -30 21 -30 25 0 8 70 127 74
127 1 0 -1 -26 -5 -57z m-6584 -36 c57 -19 70 -28 76 -49 4 -15 -11 -233 -32
-485 -21 -252 -39 -467 -39 -479 0 -13 -10 -25 -26 -33 -15 -6 -28 -10 -29 -9
-1 2 -7 188 -14 413 -6 226 -14 467 -18 538 -3 77 -2 127 4 127 5 0 40 -10 78
-23z m2428 -19 c-44 -44 -59 -43 -84 3 -8 15 -3 19 33 27 24 6 54 10 68 11 23
1 22 -1 -17 -41z m-91 -15 c15 -15 28 -32 28 -39 0 -13 -189 -194 -202 -194
-4 0 -33 16 -63 36 -54 34 -56 37 -42 57 8 12 29 48 47 80 19 35 40 59 53 62
134 31 145 31 179 -2z m-3274 -435 c159 -233 296 -434 304 -448 11 -18 17 -68
22 -181 l6 -157 -33 -19 -32 -20 -205 134 -205 134 -147 442 c-82 243 -148
446 -148 452 0 9 125 84 142 85 3 0 136 -190 296 -422z m3356 398 c-3 -9 -10
-13 -16 -10 -5 3 -4 12 3 20 15 18 22 13 13 -10z m4122 -5 c26 -16 30 -23 27
-52 -2 -19 -24 -227 -48 -463 -24 -236 -46 -430 -47 -431 -2 -1 -88 55 -193
124 l-190 126 -3 42 c-3 39 -1 42 24 45 24 3 47 39 208 316 99 171 183 312
186 312 3 0 19 -8 36 -19z m-4207 -140 c-35 -61 -67 -110 -71 -111 -4 0 -23
10 -43 21 l-37 22 98 98 c59 60 102 95 107 90 6 -6 -16 -53 -54 -120z m-2148
-13 c42 -73 118 -206 170 -295 l93 -162 104 -3 104 -3 -312 -163 c-171 -90
-314 -161 -317 -159 -7 7 69 917 77 917 3 0 40 -60 81 -132z m6776 -101 c367
-223 368 -224 368 -258 0 -19 4 -43 7 -54 5 -17 -25 -48 -178 -180 -101 -88
-192 -162 -201 -166 -10 -3 -104 -23 -210 -44 -168 -34 -195 -37 -222 -25 -17
7 -31 20 -31 29 0 9 20 212 45 451 25 239 45 443 45 453 0 9 2 17 4 17 2 0
170 -100 373 -223z m-8213 -243 c79 -236 143 -430 142 -432 -2 -1 -261 164
-333 212 -5 4 -44 559 -41 583 2 20 14 34 43 50 22 12 41 21 42 19 2 -1 68
-196 147 -432z m5857 274 c45 -79 113 -198 151 -265 l70 -123 187 0 c175 0
189 -1 206 -20 22 -24 21 -28 -65 -148 l-65 -92 -132 0 -132 0 -27 -50 c-15
-27 -32 -50 -38 -50 -17 0 -230 63 -239 70 -4 4 12 40 36 81 l44 75 -97 169
-98 170 -11 100 -11 100 65 63 c36 34 67 62 69 62 3 0 41 -64 87 -142z m-6091
-191 c12 -153 20 -280 18 -281 -2 -2 -79 47 -173 108 l-170 111 0 47 c0 34 -6
53 -22 70 -19 20 -21 27 -10 41 14 20 331 198 334 189 1 -4 12 -132 23 -285z
m9325 60 c31 -120 55 -220 53 -223 -3 -2 -82 7 -177 21 -95 14 -176 25 -180
25 -5 0 -15 17 -23 38 l-15 39 140 161 c78 89 142 160 143 159 1 -1 28 -100
59 -220z m-5746 182 c28 -18 51 -35 51 -39 0 -3 -13 -19 -28 -34 l-29 -27 -37
45 c-31 38 -35 49 -26 66 6 11 12 20 15 20 2 0 26 -14 54 -31z m-59 -154 c-48
-49 -53 -48 -65 22 -5 32 -2 50 11 73 l18 30 40 -40 40 -40 -44 -45z m180 79
l39 -26 -19 -37 c-41 -79 -42 -79 -88 -24 l-41 49 32 32 c17 18 33 32 35 32 1
0 20 -12 42 -26z m2164 -54 l6 -65 -31 53 c-30 51 -31 54 -13 73 24 26 30 16
38 -61z m-2418 -47 l7 -48 -74 -67 c-40 -37 -75 -66 -77 -64 -5 6 122 226 130
226 4 0 10 -21 14 -47z m209 -44 c8 -25 -118 -244 -126 -221 -4 10 -17 64 -30
121 l-23 104 49 44 48 44 39 -37 c21 -21 40 -46 43 -55z m-164 -146 l28 -117
-26 -46 -25 -45 51 -87 c28 -47 51 -88 51 -91 0 -2 -64 28 -142 69 l-143 73 3
103 4 103 81 82 c44 45 83 80 85 78 3 -3 17 -57 33 -122z m-3641 -73 c80 -51
151 -99 159 -106 9 -8 17 -44 21 -95 l6 -82 -89 94 c-234 250 -290 312 -267
298 14 -9 90 -58 170 -109z m-34 -77 c92 -98 180 -191 195 -208 l28 -30 31
-410 c29 -386 30 -411 13 -420 -68 -40 -85 -110 -37 -158 32 -32 59 -37 106
-19 l36 14 216 -173 c119 -95 216 -180 216 -188 0 -12 -283 -1112 -296 -1150
-2 -8 -6 -12 -8 -10 -6 6 -696 2897 -696 2915 0 35 38 3 196 -163z m9402 113
c106 -15 167 -28 172 -36 28 -46 22 -81 -51 -294 -40 -116 -75 -215 -79 -219
-7 -8 -180 298 -180 316 0 15 41 6 60 -13 24 -24 57 -26 82 -3 22 20 24 66 2
87 -18 18 -65 21 -81 5 -13 -13 -153 148 -146 168 7 17 30 16 221 -11z m-164
-102 c36 -45 66 -86 66 -93 0 -6 -13 -11 -29 -11 -27 0 -34 8 -75 84 -74 135
-61 142 38 20z m-5789 -61 l-6 -32 -34 16 c-31 15 -33 19 -28 52 3 21 18 50
37 69 l31 33 3 -53 c2 -29 1 -67 -3 -85z m5607 125 c15 -12 15 -22 1 -113 -8
-55 -16 -101 -17 -102 -4 -4 -349 -73 -352 -70 -5 5 330 297 342 297 5 0 17
-6 26 -12z m568 0 c0 -7 -4 -19 -9 -26 -7 -11 -10 -10 -15 3 -10 26 -7 35 9
35 8 0 15 -6 15 -12z m-6641 -5 c0 -5 -41 -62 -92 -128 l-92 -120 -131 -3
-130 -3 -77 122 c-42 66 -77 125 -77 130 0 5 124 9 300 9 165 0 300 -3 299 -7z
m208 1 c19 -5 20 -9 11 -35 -5 -16 -8 -40 -4 -52 5 -20 -8 -31 -116 -95 l-121
-73 -69 3 -70 3 96 128 96 127 78 0 c42 0 87 -3 99 -6z m213 2 c0 -2 -7 -9
-15 -16 -12 -10 -15 -10 -15 4 0 9 7 16 15 16 8 0 15 -2 15 -4z m3530 -11
c-12 -15 -30 -12 -30 6 0 5 10 9 21 9 18 0 19 -2 9 -15z m69 -63 c34 -81 31
-83 -28 -14 -38 46 -39 50 -25 71 9 12 17 21 19 19 1 -2 17 -36 34 -76z m326
36 c-7 -24 -25 -82 -39 -130 l-27 -88 -73 0 c-68 0 -74 2 -93 28 -18 25 -103
211 -103 226 0 4 78 6 174 6 l174 0 -13 -42z m249 30 c-4 -7 -43 -66 -87 -130
l-81 -118 -63 0 c-57 0 -64 2 -59 18 20 72 69 228 73 235 2 4 54 7 114 7 85 0
109 -3 103 -12z m159 -20 c2 -18 3 -34 2 -36 -3 -3 -105 59 -105 64 0 2 22 4
49 4 47 0 49 -1 54 -32z m1442 -54 c31 -58 43 -89 35 -94 -14 -9 -141 -32
-146 -27 -3 2 1 47 8 100 10 84 15 97 32 100 12 2 22 5 23 6 0 0 22 -38 48
-85z m650 63 l150 -22 2 -710 c1 -391 0 -705 -3 -700 -15 36 -362 1379 -359
1388 20 57 26 67 42 66 10 0 86 -10 168 -22z m-7393 -110 l77 -122 -196 -5
-196 -5 -98 -170 c-54 -93 -129 -223 -165 -288 -37 -65 -72 -116 -78 -114 -6
3 -37 10 -68 17 -69 16 -65 -10 -40 273 l17 188 330 174 c182 95 332 174 335
174 3 1 40 -54 82 -122z m5251 71 l57 -39 0 -79 0 -80 -156 0 c-121 0 -154 3
-147 13 56 92 167 236 176 230 7 -3 38 -24 70 -45z m2439 -22 c10 -11 23 -27
29 -34 9 -11 -8 -169 -69 -640 l-80 -627 -1 668 -1 668 53 -7 c36 -4 57 -13
69 -28z m-3135 -53 c33 -38 68 -80 77 -95 l18 -28 -151 0 c-119 0 -151 3 -145
13 22 37 127 177 134 177 4 0 34 -30 67 -67z m962 -98 c97 -64 181 -123 186
-131 16 -24 -14 -39 -126 -59 -87 -16 -102 -17 -110 -4 -4 8 -28 48 -51 89
-31 53 -50 76 -66 78 -20 3 -22 9 -22 73 0 38 3 69 6 69 4 0 86 -52 183 -115z
m1960 -1049 c27 -104 46 -185 42 -180 -5 5 -119 213 -255 462 l-247 452 65
189 c36 103 70 201 77 217 11 30 38 -67 318 -1140z m-9506 1041 l172 -113 77
-232 c42 -128 75 -232 73 -232 -6 0 -466 493 -479 513 -12 19 -29 177 -19 177
2 0 81 -51 176 -113z m2841 39 c-3 -23 -8 -44 -11 -48 -2 -5 -57 -8 -121 -8
l-117 0 105 63 c99 60 106 63 128 49 20 -13 22 -20 16 -56z m156 44 c37 -19
40 -24 40 -60 0 -22 -2 -40 -4 -40 -2 0 -22 27 -45 60 -23 33 -40 60 -36 60 3
0 24 -9 45 -20z m-22 -54 l33 -46 -51 0 -52 0 7 33 c16 80 15 80 63 13z m-72
27 c-3 -10 -8 -30 -12 -45 -4 -19 -13 -28 -25 -28 -16 0 -18 5 -13 28 12 56
16 62 35 62 15 0 19 -5 15 -17z m457 -163 c9 -8 129 -510 125 -521 -2 -4 -101
128 -221 292 l-218 300 7 45 6 45 147 -77 c80 -42 150 -79 154 -84z m5569 -26
l97 -175 -87 -255 c-48 -139 -90 -254 -94 -254 -3 0 -68 40 -142 90 -92 61
-136 95 -135 107 0 10 19 155 42 323 l42 305 75 17 c41 9 82 17 91 17 10 1 48
-59 111 -175z m-338 -176 c-24 -172 -43 -314 -44 -315 -1 -5 -529 342 -529
348 -1 3 49 50 110 104 l112 99 181 37 c100 20 188 37 197 38 13 1 10 -40 -27
-311z m-7820 120 l86 -126 -46 -27 -46 -27 -44 24 c-24 12 -44 30 -45 38 -12
174 -13 268 -3 257 6 -7 50 -69 98 -139z m5121 87 c65 -19 120 -36 122 -38 4
-4 -121 -224 -137 -241 -5 -4 -34 10 -67 33 l-58 42 -11 90 c-8 74 -8 95 4
119 8 17 18 30 22 30 4 0 60 -16 125 -35z m2235 -46 c-36 -33 -81 -73 -100
-88 l-35 -28 -80 53 c-44 30 -78 54 -75 55 243 52 319 67 335 67 15 1 3 -15
-45 -59z m-8018 -231 l233 -248 43 -127 c23 -70 38 -130 34 -134 -4 -3 -109
-14 -233 -23 -204 -15 -228 -15 -256 -1 -28 14 -32 22 -37 68 -7 56 -56 709
-56 735 0 20 -30 50 272 -270z m469 -33 c-3 -37 12 -71 41 -95 18 -15 17 -20
-21 -163 -22 -82 -41 -150 -43 -151 -1 -2 -48 45 -103 103 l-100 107 -77 235
c-43 129 -78 238 -78 241 0 4 86 -49 192 -118 191 -124 192 -125 189 -159z
m669 100 c-7 -96 -17 -172 -22 -169 -4 3 -8 78 -8 166 0 142 2 162 17 174 10
7 20 10 22 8 2 -2 -2 -83 -9 -179z m6525 165 c-3 -5 -10 -10 -16 -10 -5 0 -9
5 -9 10 0 6 7 10 16 10 8 0 12 -4 9 -10z m-2047 -112 l-3 -28 -29 23 -28 23
23 45 23 44 8 -40 c5 -22 8 -52 6 -67z m-4525 -95 c4 -102 5 -188 2 -191 -4
-4 -195 44 -199 50 -1 2 -29 41 -61 87 -32 47 -54 86 -49 88 5 2 72 37 149 78
77 41 143 75 146 75 3 0 9 -84 12 -187z m2293 37 c175 -305 184 -321 171 -325
-35 -12 -140 -36 -143 -32 -2 2 -29 111 -59 243 -31 131 -58 246 -61 254 -12
33 17 -11 92 -140z m4403 94 l85 -57 -26 -21 c-14 -12 -74 -63 -132 -114 -80
-71 -106 -89 -106 -74 0 39 30 304 36 313 13 22 64 6 143 -47z m-4580 -215
c186 -254 187 -256 124 -258 -17 -1 -37 25 -104 142 -45 78 -113 196 -151 262
-38 66 -65 115 -59 109 7 -6 92 -120 190 -255z m4411 249 c0 -53 -35 -327 -41
-321 -13 13 -169 287 -165 290 3 3 174 40 194 42 6 1 12 -5 12 -11z m-2024
-105 c28 -21 32 -31 38 -91 4 -37 9 -88 13 -114 4 -38 2 -48 -9 -48 -7 0 -31
-9 -53 -20 -21 -11 -40 -19 -41 -17 -1 1 -25 35 -52 75 l-50 73 51 89 c29 48
56 86 62 82 5 -3 24 -16 41 -29z m2836 -351 c6 -7 -45 -408 -53 -416 -2 -2
-125 22 -273 54 -305 66 -274 49 -353 190 -26 47 -71 125 -100 175 -29 49 -52
93 -51 97 2 4 67 64 146 132 l142 125 268 -175 c147 -96 270 -178 274 -182z
m-7618 237 c26 -39 45 -73 43 -75 -2 -3 -47 6 -98 19 -82 20 -94 26 -99 48 -5
20 0 28 39 51 25 15 51 27 57 27 6 1 32 -31 58 -70z m4891 39 c25 -17 45 -36
45 -41 0 -6 -17 -40 -37 -76 -34 -60 -37 -64 -43 -41 -10 36 -22 190 -16 190
3 0 26 -14 51 -32z m3475 -416 c220 -403 262 -493 218 -466 -42 25 -624 407
-631 414 -5 4 26 108 69 231 95 277 94 273 98 268 2 -2 113 -203 246 -447z
m-8411 299 c62 -16 117 -33 122 -38 4 -4 46 -64 93 -132 82 -121 84 -126 71
-152 -14 -26 -19 -27 -118 -34 -57 -4 -112 -6 -122 -4 -12 3 -49 61 -107 171
l-89 167 18 25 c10 14 18 25 18 25 0 1 51 -12 114 -28z m4730 -63 l32 -48 -28
-35 c-27 -33 -28 -34 -52 -18 -13 8 -39 24 -58 35 -18 11 -33 24 -33 28 0 5
16 36 36 70 l35 61 18 -23 c10 -13 32 -44 50 -70z m-4806 -135 c48 -91 86
-167 85 -168 -2 -2 -66 -8 -142 -14 -184 -16 -180 -20 -143 132 50 203 54 213
85 215 25 1 33 -9 115 -165z m322 136 l85 -21 0 -105 c0 -57 -4 -102 -8 -99
-12 7 -174 246 -167 246 3 0 44 -10 90 -21z m243 -64 c4 -4 -8 -28 -60 -118
-34 -58 -42 -66 -57 -57 -17 8 -18 19 -14 97 2 49 6 93 8 100 3 8 19 8 62 -4
32 -8 59 -16 61 -18z m4200 -63 c10 -6 10 -15 2 -36 -5 -15 -10 -43 -10 -62 0
-59 -27 -42 -66 43 -19 42 -37 88 -41 102 l-6 24 54 -32 c30 -17 60 -35 67
-39z m-82 -79 l23 -52 -84 -3 c-47 -2 -85 -1 -85 2 0 3 21 41 46 84 l47 80 15
-30 c8 -16 26 -52 38 -81z m-1743 12 c26 -47 47 -92 47 -100 0 -12 -15 -15
-72 -15 l-73 1 -57 79 -58 79 58 16 c31 9 62 18 67 20 30 10 44 -2 88 -80z
m-3196 -120 c-2 -17 -9 -20 -51 -20 l-49 0 -34 100 c-18 54 -33 104 -33 110 0
5 38 -30 85 -80 55 -59 84 -97 82 -110z m8163 110 c71 -46 130 -88 130 -92 0
-13 -80 -247 -89 -262 -8 -12 -26 -11 -118 9 -59 12 -111 25 -115 29 -9 8 43
401 54 401 4 0 66 -38 138 -85z m-5191 8 c30 -122 30 -124 13 -121 -14 3 -91
121 -92 140 0 3 8 9 18 11 43 11 51 7 61 -30z m64 -56 c21 -30 37 -57 37 -61
0 -4 -12 -6 -27 -4 -23 3 -29 10 -40 53 -21 83 -19 83 30 12z m1947 -53 c7
-19 -3 -25 -119 -72 -69 -29 -132 -52 -139 -52 -21 0 -13 36 20 94 l33 57 99
-3 c90 -3 99 -5 106 -24z m40 12 c0 -8 -4 -18 -10 -21 -5 -3 -10 -4 -10 -1 0
2 -3 11 -6 20 -4 11 -1 16 10 16 9 0 16 -6 16 -14z m-4406 -31 c3 -9 14 -19
25 -23 18 -6 14 -16 -47 -124 -37 -65 -69 -118 -72 -118 -3 0 -37 60 -77 133
l-71 132 51 6 c110 12 185 10 191 -6z m8018 -189 c172 -112 314 -208 315 -213
3 -9 -714 140 -725 151 -4 4 21 79 79 244 5 12 11 22 14 22 3 0 146 -92 317
-204z m-8155 -43 l123 -228 -32 -26 -32 -27 -96 102 c-278 292 -359 381 -354
386 7 6 116 16 204 18 l65 2 122 -227z m2666 153 c25 -33 43 -66 40 -73 -7
-17 -107 -18 -121 0 -5 6 -15 32 -22 57 -6 25 -13 53 -16 62 -4 13 3 17 28 20
40 4 37 7 91 -66z m93 58 c-3 -9 -6 -36 -6 -60 0 -60 -19 -58 -70 9 -22 30
-40 57 -40 60 0 4 27 7 61 7 52 0 60 -2 55 -16z m59 -30 l24 -41 -24 -23 c-13
-12 -28 -19 -34 -15 -14 8 -15 128 -1 123 6 -2 22 -22 35 -44z m1740 37 c3 -5
1 -12 -5 -16 -5 -3 -10 1 -10 9 0 18 6 21 15 7z m-2025 -29 c0 -15 -2 -15 -10
-2 -13 20 -13 33 0 25 6 -3 10 -14 10 -23z m1996 -26 c-6 -23 -193 -156 -220
-156 -10 0 -14 11 -13 36 1 24 -5 41 -17 49 -21 16 -24 15 121 75 99 41 119
46 126 34 5 -9 6 -26 3 -38z m-5016 37 c-2 -30 -39 -135 -44 -123 -14 37 -36
103 -36 111 0 4 15 10 33 12 17 2 35 5 40 5 4 1 7 -1 7 -5z m295 -240 c127
-134 231 -248 233 -252 1 -4 -5 -17 -15 -29 l-18 -21 -229 93 -230 92 -30 86
c-32 92 -32 110 4 241 19 68 36 55 285 -210z m-369 153 c25 -78 27 -88 16
-138 -21 -91 -4 -91 -260 11 l-230 92 -5 37 c-2 20 -2 39 0 41 2 4 316 32 430
40 19 1 25 -10 49 -83z m7764 -37 c135 -28 248 -54 252 -58 4 -3 -15 -170 -42
-371 -28 -201 -50 -371 -50 -378 0 -8 -4 -12 -9 -10 -13 4 -451 461 -451 470
0 3 27 53 60 110 33 56 60 108 60 115 0 6 -22 50 -50 98 -36 63 -45 85 -32 81
9 -2 127 -28 262 -57z m-3966 11 l361 0 70 -107 c39 -59 69 -109 67 -112 -1
-3 -23 -14 -50 -23 -38 -13 -88 -17 -267 -17 l-220 -1 -190 99 c-168 88 -191
103 -196 128 -4 20 0 35 15 51 l21 23 14 -20 c13 -21 20 -21 375 -21z m976 20
c0 -5 -5 -10 -11 -10 -5 0 -7 5 -4 10 3 6 8 10 11 10 2 0 4 -4 4 -10z m254
-57 c-15 -27 -31 -53 -36 -59 -9 -12 -67 -5 -71 8 -2 6 118 95 131 97 2 1 -9
-20 -24 -46z m-312 28 c18 -7 24 -16 23 -42 l0 -33 -195 -63 c-107 -34 -202
-62 -210 -62 -13 -1 -41 38 -133 180 l-19 29 255 0 c141 0 266 -4 279 -9z
m-4961 -111 c123 -50 224 -92 227 -94 7 -8 -31 -156 -41 -156 -7 0 -378 290
-417 326 -27 26 8 14 231 -76z m3503 65 c4 -12 -33 -45 -51 -45 -8 0 -43 51
-43 62 0 10 89 -6 94 -17z m4915 -45 c52 -11 96 -21 98 -23 2 -2 -58 -182
-134 -401 l-137 -396 -33 32 -32 33 50 370 c58 438 55 418 77 411 9 -3 59 -14
111 -26z m-4862 0 c13 0 32 5 42 11 15 10 46 -3 191 -77 l174 -89 -137 -5
-137 -5 -50 -85 c-27 -47 -64 -111 -82 -142 -18 -32 -36 -58 -40 -58 -9 0 -16
29 -59 213 -31 138 -31 139 -13 175 24 46 65 84 79 71 5 -5 19 -9 32 -9z
m-3248 -62 c11 -34 19 -63 17 -65 -3 -3 -51 15 -65 23 -4 3 19 104 24 104 2 0
13 -28 24 -62z m4771 55 c0 -5 -26 -25 -58 -46 -31 -21 -68 -45 -82 -55 -17
-12 -11 1 23 46 43 55 52 62 83 62 19 0 34 -3 34 -7z m151 -47 c8 -17 72 -129
142 -249 70 -120 127 -228 127 -240 0 -19 -2 -19 -14 -7 -8 8 -95 132 -195
274 -112 160 -177 262 -171 266 6 4 30 3 53 -3 32 -7 46 -17 58 -41z m-308
-31 l-57 -75 -131 0 c-201 0 -197 12 32 87 103 34 194 62 201 62 7 1 -13 -33
-45 -74z m372 -227 l198 -281 -7 -136 c-10 -177 -11 -183 -42 -169 -26 12 -61
68 -304 491 l-142 247 -51 0 -52 0 95 64 c52 36 98 65 101 65 3 1 95 -126 204
-281z m3615 207 c190 -41 348 -75 352 -75 5 0 22 -51 23 -72 0 -7 -886 -718
-895 -718 -3 0 -34 31 -68 69 l-62 69 135 389 c74 213 137 394 140 401 2 6 10
12 17 12 7 0 168 -34 358 -75z m-8516 -212 c30 -90 53 -163 51 -163 -6 0 -230
182 -233 190 -2 5 6 45 18 89 l22 79 44 -16 44 -16 54 -163z m3091 -110 l6
-32 -161 -52 c-89 -28 -163 -49 -165 -47 -3 2 10 29 28 59 19 30 71 119 117
199 46 80 88 151 94 159 8 11 19 -18 43 -120 17 -74 34 -148 38 -166z m1085
277 c0 -5 -15 -10 -32 -9 -28 0 -30 2 -13 9 28 12 45 12 45 0z m-3973 -110
l208 -84 -1 -83 -2 -83 -68 -75 -69 -74 -94 77 -95 77 -53 160 c-56 168 -59
179 -44 173 5 -1 103 -41 218 -88z m8713 -21 c0 -9 -563 -1023 -577 -1039 -6
-7 -322 323 -320 334 3 10 878 714 890 715 4 1 7 -4 7 -10z m-1380 -239 l233
-241 -22 -167 c-33 -248 -29 -234 -59 -230 -22 3 -57 55 -248 368 l-222 365
31 55 c34 61 51 90 53 90 1 0 106 -108 234 -240z m-7424 -133 l46 -139 -34
-36 c-19 -21 -156 -172 -303 -337 -147 -165 -274 -307 -281 -315 -10 -10 -17
-11 -24 -4 -8 8 34 183 140 587 82 317 150 579 150 582 0 2 58 -41 130 -98
l130 -102 46 -138z m8580 -234 c-239 -593 -224 -568 -297 -497 -22 21 -39 42
-39 47 0 9 540 977 545 977 1 0 -93 -237 -209 -527z m-1261 77 c119 -195 217
-359 218 -365 1 -5 -5 -9 -14 -9 -15 1 -586 361 -617 389 -10 8 -6 20 16 55
16 25 59 100 97 168 38 67 72 121 77 120 4 -2 105 -163 223 -358z m-4330 313
c-3 -10 -30 -58 -59 -108 -29 -49 -79 -134 -110 -187 -31 -54 -60 -98 -64 -98
-23 0 -261 54 -258 59 1 3 33 59 70 123 l67 117 167 55 c190 62 197 63 187 39z
m-2598 -125 c21 -14 47 -28 58 -31 19 -6 20 -14 17 -109 -2 -57 -7 -108 -10
-115 -8 -12 -267 189 -267 208 0 6 27 42 60 79 l59 69 23 -38 c12 -21 39 -49
60 -63z m-248 -53 c1 -6 -18 -30 -42 -53 l-43 -42 -33 103 c-19 56 -36 108
-39 116 -3 8 31 -14 76 -50 44 -35 81 -69 81 -74z m4918 38 c49 -83 69 -121
56 -108 -19 19 -113 158 -113 167 0 23 22 1 57 -59z m-4307 -115 c46 -79 104
-179 130 -223 26 -44 60 -104 76 -132 l29 -53 184 -2 184 -3 -133 -103 c-72
-57 -137 -105 -144 -108 -7 -3 -68 40 -136 94 l-123 99 -102 266 -103 267 27
20 c14 11 27 20 27 20 1 0 39 -64 84 -142z m4358 -20 c176 -254 185 -269 173
-281 -9 -9 -49 7 -157 61 l-146 73 6 67 c3 37 9 102 12 145 3 42 8 77 9 77 2
0 48 -64 103 -142z m-4419 -129 c51 -133 91 -243 89 -244 -2 -2 -70 49 -152
113 l-148 117 6 59 c3 32 6 87 6 122 0 61 1 63 28 67 84 13 70 32 171 -234z
m-375 95 l136 -108 -1 -55 c0 -31 -11 -234 -23 -451 l-22 -395 -170 510 -171
511 45 52 c25 29 51 51 57 48 7 -2 74 -53 149 -112z m7363 -184 c-28 -82 -53
-148 -54 -146 -3 3 37 316 43 335 3 11 12 7 34 -14 l28 -27 -51 -148z m-7457
-336 l172 -516 -18 -34 c-18 -33 -18 -34 4 -64 18 -24 21 -38 16 -65 -3 -19
-9 -35 -13 -35 -3 0 -214 98 -468 217 -445 209 -463 218 -463 245 0 15 -5 38
-11 52 -11 23 6 43 297 370 170 190 310 345 311 346 1 0 79 -232 173 -516z
m6979 318 l304 -197 1 -50 1 -49 -220 -151 c-121 -83 -276 -189 -345 -237
l-126 -86 -213 261 -214 261 9 45 9 46 135 3 136 3 99 174 c55 96 105 174 110
174 6 0 147 -89 314 -197z m-4454 96 c2 -1 -3 -12 -11 -22 -13 -18 -21 -19
-148 -10 -75 6 -138 13 -141 16 -3 3 3 21 15 41 l21 35 130 -28 c72 -15 132
-30 134 -32z m5115 -70 c0 -9 -211 -180 -217 -175 -3 3 32 110 88 265 l12 34
58 -58 c33 -32 59 -62 59 -66z m-2900 30 c0 -12 -1 -19 -3 -17 -2 2 -11 17
-21 32 -17 28 -17 28 3 17 12 -6 21 -20 21 -32z m-4261 -161 l103 -83 59 -153
58 -154 -27 -21 c-302 -238 -429 -333 -439 -329 -17 7 -17 53 7 503 11 206 20
383 20 393 0 20 0 20 219 -156z m4550 37 c3 -3 -9 -19 -26 -36 -30 -29 -36
-31 -95 -29 -34 1 -68 7 -75 12 -27 23 -73 120 -73 154 l0 35 133 -66 c72 -36
134 -68 136 -70z m-2672 115 c70 -6 129 -12 131 -14 2 -1 -22 -45 -53 -97
l-55 -95 -118 33 c-64 19 -122 36 -129 38 -15 6 66 146 84 146 7 0 70 -5 140
-11z m5471 -212 c151 -155 162 -169 151 -190 -48 -90 -653 -1164 -660 -1171
-5 -5 -11 -7 -14 -4 -5 5 58 1018 71 1135 5 46 9 54 30 59 55 14 82 94 48 143
-9 12 -12 26 -8 31 29 27 210 169 214 167 3 -1 79 -77 168 -170z m-2738 92 c0
-6 -4 -7 -10 -4 -5 3 -10 11 -10 16 0 6 5 7 10 4 6 -3 10 -11 10 -16z m-7 -25
c18 -9 39 -25 46 -37 13 -19 12 -20 -34 -13 -26 3 -62 6 -78 6 l-31 0 29 30
c16 17 30 30 32 30 1 0 17 -7 36 -16z m-2831 -44 l117 -34 -31 -57 -31 -57 21
-37 c12 -20 20 -40 17 -45 -4 -7 -188 -159 -231 -192 -20 -15 -177 -39 -188
-28 -9 9 9 381 20 423 5 14 17 17 73 17 63 0 69 2 80 26 6 14 17 24 24 22 6
-3 65 -20 129 -38z m-919 -46 c27 -19 47 -41 44 -47 -2 -7 -28 -111 -57 -232
-29 -121 -55 -223 -59 -227 -3 -4 -93 63 -200 149 -106 85 -189 159 -185 163
5 5 72 58 149 119 l140 110 60 0 c53 0 65 -4 108 -35z m57 16 c0 -25 -18 -25
-50 0 l-25 20 38 0 c30 0 37 -4 37 -20z m266 -123 c29 -76 49 -137 45 -135
-18 7 -301 214 -301 220 0 4 4 18 10 33 10 25 11 26 101 23 l91 -3 54 -138z
m269 96 c-2 -27 -10 -120 -16 -208 -6 -88 -12 -161 -14 -163 -1 -1 -38 24 -82
56 -78 58 -80 60 -110 143 -17 46 -43 114 -57 152 l-26 67 155 0 156 0 -6 -47z
m2990 17 l-29 -31 -18 23 c-26 34 -23 38 29 38 l47 0 -29 -30z m805 -411 c166
-358 201 -442 189 -450 -8 -5 -19 -7 -26 -4 -10 3 -833 473 -841 480 -2 2 36
75 84 164 85 157 88 161 120 161 36 0 74 37 74 71 0 17 9 19 98 19 l99 0 203
-441z m388 389 c24 -29 40 -58 38 -67 -3 -9 -35 -178 -72 -376 -36 -198 -67
-361 -68 -362 -1 -1 -17 -4 -36 -5 l-33 -3 -199 429 c-109 236 -198 431 -198
433 0 1 118 3 263 3 l263 0 42 -52z m52 23 c0 -42 -13 -45 -38 -11 -28 38 -28
40 8 40 27 0 30 -3 30 -29z m-1037 13 c32 -5 47 -12 50 -25 4 -15 -16 -26
-125 -69 -71 -27 -131 -50 -133 -50 -2 0 -1 8 1 18 3 9 -2 26 -10 37 -14 18
-12 23 22 58 33 34 40 37 93 37 31 0 77 -3 102 -6z m-4390 -138 c53 -43 97
-81 97 -85 -1 -5 -74 -64 -105 -83 -8 -5 -23 23 -45 80 -18 48 -41 109 -52
136 -12 32 -15 46 -6 39 7 -5 57 -45 111 -87z m4380 -84 c-47 -86 -87 -159
-89 -161 -3 -3 -138 70 -167 91 -17 12 -16 16 10 67 l28 54 145 58 c80 31 148
55 152 53 3 -2 -32 -75 -79 -162z m-3505 3 l112 -80 30 -79 c17 -43 30 -79 28
-80 -3 -3 -492 -83 -495 -82 -1 1 24 108 55 238 l56 237 51 -37 c29 -20 102
-73 163 -117z m4732 -100 c90 -110 181 -221 202 -246 l38 -47 -216 -148 c-181
-123 -219 -145 -233 -135 -9 6 -35 21 -58 32 -24 11 -43 25 -43 32 0 7 29 170
65 362 36 193 65 354 65 360 0 12 -10 24 180 -210z m992 159 l30 -16 -6 -71
c-3 -40 -20 -281 -36 -537 -39 -601 -35 -566 -69 -578 -27 -10 -32 -4 -330
361 -167 203 -304 375 -307 381 -2 6 40 40 94 76 53 36 207 140 341 232 134
93 246 168 248 168 2 0 18 -7 35 -16z m744 -119 c-2 -11 -1 -29 3 -40 7 -16
-53 -101 -308 -439 -345 -459 -352 -467 -323 -416 11 19 140 250 287 513 l268
478 39 -38 c27 -26 38 -44 34 -58z m-5692 23 c10 -18 27 -47 37 -64 l19 -31
-141 -22 c-78 -12 -142 -21 -144 -19 -4 4 197 168 205 168 3 0 14 -15 24 -32z
m-1334 -135 c114 -90 187 -155 179 -157 -37 -13 -394 -64 -400 -58 -6 7 -96
237 -101 260 -3 13 111 113 124 109 3 -1 93 -71 198 -154z m3940 -3 c21 -15
19 -19 -91 -223 -61 -114 -114 -205 -118 -202 -3 4 -13 90 -22 193 l-17 187
25 45 c14 25 35 55 46 67 l20 23 68 -38 c38 -20 78 -44 89 -52z m-3125 -14
c17 -13 28 -27 25 -30 -3 -3 -25 -6 -49 -8 l-43 -3 -24 63 -24 63 42 -30 c24
-17 57 -42 73 -55z m-1101 -86 c24 -63 41 -118 38 -121 -10 -9 -532 -92 -539
-86 -2 3 33 35 79 71 45 36 146 114 223 175 116 91 141 107 147 93 4 -9 28
-69 52 -132z m1749 14 l57 -100 -49 -120 c-27 -65 -51 -119 -54 -119 -5 0
-123 85 -349 251 l-98 72 45 37 c43 35 55 39 183 60 207 36 196 39 265 -81z
m3350 -413 c4 -4 -1 -27 -12 -52 -12 -24 -21 -54 -21 -67 0 -15 -9 -26 -27
-33 -25 -9 -962 -209 -982 -209 -4 0 -15 86 -24 191 l-16 190 101 187 c55 103
111 206 124 229 l24 42 413 -236 c226 -129 416 -238 420 -242z m-3813 443
c-25 -29 -46 -34 -71 -16 l-24 17 30 6 c17 4 41 7 54 8 20 1 22 -1 11 -15z
m-2237 -272 l358 -167 -6 -135 c-3 -74 -8 -154 -11 -177 l-5 -42 -464 392
c-255 216 -464 395 -464 399 -1 4 52 -18 117 -48 64 -30 278 -130 475 -222z
m2066 132 c-6 -8 -14 -14 -18 -14 -7 0 -46 107 -46 125 0 6 16 12 35 15 l35 5
3 -58 c2 -35 -2 -65 -9 -73z m84 113 l28 -23 -41 -33 -40 -32 0 56 c0 62 9 67
53 32z m-148 -68 c32 -82 43 -63 -104 -182 l-104 -84 -159 126 c-111 88 -153
127 -141 130 22 4 454 78 469 80 6 0 23 -31 39 -70z m2930 -129 l17 -196 -113
-209 c-62 -116 -119 -217 -126 -227 -9 -10 -51 -23 -109 -34 l-95 -18 -57 57
-57 57 35 0 36 0 164 286 c91 157 185 320 209 362 56 99 72 124 76 120 2 -1
11 -91 20 -198z m-5046 -209 l453 -385 -7 -135 c-4 -75 -11 -140 -16 -146 -6
-6 -20 2 -38 20 -46 48 -863 1037 -854 1034 5 -2 213 -177 462 -388z m2535
208 c121 -88 222 -164 224 -169 10 -27 -56 -108 -180 -223 -119 -111 -141
-127 -167 -125 -17 1 -33 9 -36 18 -149 383 -175 460 -175 518 0 59 1 60 48
101 26 22 51 40 56 41 4 0 108 -72 230 -161z m-984 98 c0 -12 -133 -574 -146
-620 -4 -12 -13 -17 -27 -15 -18 3 -38 48 -129 287 -60 156 -106 286 -103 289
4 5 354 68 393 71 6 1 12 -5 12 -12z m183 -118 c83 -67 153 -125 154 -128 2
-7 -458 -384 -463 -379 -1 2 10 55 26 118 15 63 49 204 75 313 26 108 49 197
51 197 2 0 73 -55 157 -121z m1187 31 l32 -55 -72 -68 c-93 -89 -108 -81 -60
35 57 141 61 150 65 147 1 -2 17 -29 35 -59z m-743 18 c-3 -7 -5 -2 -5 12 0
14 2 19 5 13 2 -7 2 -19 0 -25z m5024 -359 c262 -320 310 -383 298 -394 -12
-11 -92 15 -479 156 -256 93 -484 176 -508 185 -29 11 -42 21 -38 30 3 7 -1
34 -8 58 l-14 45 217 149 c119 83 217 150 218 151 1 1 143 -170 314 -380z
m-5972 77 c113 -294 113 -294 93 -314 -20 -20 -20 -20 -427 171 l-406 191 3
45 c3 39 6 46 28 51 14 3 31 18 38 32 10 22 22 28 80 37 73 12 463 78 473 80
3 0 57 -131 118 -293z m935 252 c11 -27 12 -61 4 -178 -6 -80 -12 -147 -14
-149 -6 -6 -224 173 -221 182 3 11 199 175 210 176 4 1 14 -14 21 -31z m868
-180 c34 -62 64 -115 66 -120 2 -4 -13 -14 -33 -22 l-36 -16 -92 67 c-51 36
-96 70 -102 75 -6 6 14 31 55 68 36 33 68 59 72 60 3 0 35 -50 70 -112z m-759
-103 c36 -93 68 -179 73 -189 4 -11 -33 12 -85 54 -64 50 -90 77 -87 89 2 9 8
70 11 136 5 74 10 112 15 100 4 -11 37 -96 73 -190z m-234 20 l113 -90 -6
-130 c-9 -176 -13 -195 -40 -195 -11 0 -155 15 -318 34 l-298 33 -29 32 -29
31 236 194 c131 106 242 191 248 187 6 -3 61 -46 123 -96z m737 57 c-18 -16
-18 -16 -6 6 6 13 14 21 18 18 3 -4 -2 -14 -12 -24z m141 -71 l92 -68 -177
-70 c-97 -39 -178 -70 -179 -69 -2 1 18 52 43 112 43 102 88 163 119 163 6 0
51 -30 102 -68z m-2025 -136 l393 -184 6 -41 c6 -42 42 -90 68 -90 14 0 119
-166 110 -174 -2 -2 -140 -6 -306 -9 l-301 -5 -197 166 -197 167 6 105 c9 151
17 250 21 250 2 0 180 -83 397 -185z m4192 -28 c6 -76 9 -140 5 -143 -13 -8
-239 -51 -239 -46 0 7 178 338 199 372 l16 24 3 -34 c2 -19 9 -97 16 -173z
m-2421 35 l-36 -92 -80 -30 c-89 -34 -100 -36 -95 -16 3 13 240 237 245 232 2
-1 -14 -44 -34 -94z m486 23 c17 -30 31 -57 31 -60 0 -2 -29 17 -65 43 -58 42
-63 48 -48 60 32 23 50 13 82 -43z m-23 -47 c52 -37 94 -76 107 -100 18 -31
28 -38 52 -38 43 0 384 -246 377 -272 -3 -12 -11 -16 -31 -13 -14 3 -251 30
-526 60 -275 31 -512 59 -527 63 l-27 7 44 105 43 105 188 77 c104 43 195 75
202 73 8 -3 52 -33 98 -67z m-855 -19 c87 -69 88 -71 73 -94 -19 -29 -11 -60
21 -81 29 -19 60 -11 81 21 15 23 148 84 159 73 5 -4 -66 -182 -76 -193 -3 -2
-81 4 -174 15 -94 11 -178 20 -189 20 -17 0 -18 6 -12 73 3 39 9 109 12 155 4
45 9 82 11 82 3 0 45 -32 94 -71z m3874 41 c4 -12 22 -37 42 -56 24 -24 32
-39 25 -47 -5 -7 -219 -301 -477 -655 -414 -570 -470 -642 -489 -636 -11 4
-22 8 -24 9 -8 7 -92 1039 -85 1045 4 4 177 69 383 145 656 242 614 229 625
195z m655 -97 c157 -57 373 -136 480 -175 107 -39 195 -71 196 -72 1 -1 4 -14
7 -31 l5 -30 -186 -87 c-103 -48 -358 -168 -567 -267 -359 -170 -380 -178
-386 -158 -3 12 -9 130 -13 262 -3 132 -9 310 -13 396 l-6 156 30 6 c37 7 89
49 109 89 12 23 19 28 37 22 12 -4 150 -54 307 -111z m-885 66 c-11 -5 -191
-72 -400 -148 -267 -98 -382 -136 -387 -128 -7 11 -12 116 -5 117 1 1 180 38
397 84 411 87 428 91 395 75z m379 -78 c9 -14 36 -835 28 -842 -23 -21 -1016
-480 -1028 -475 -10 4 -12 11 -7 19 4 8 220 305 478 660 419 576 473 646 497
647 15 0 29 -4 32 -9z m-2616 -159 c28 -84 32 -105 21 -118 -7 -8 -18 -13 -24
-10 -10 3 -306 216 -324 233 -3 2 62 2 144 1 l148 -3 35 -103z m257 -7 c-79
-75 -125 -112 -135 -108 -8 3 -28 8 -43 12 -26 6 -31 15 -62 109 l-33 102 197
0 196 0 -120 -115z m380 35 c32 -45 56 -82 54 -85 -2 -2 -114 -26 -249 -55
-135 -28 -252 -53 -261 -56 -10 -3 -19 3 -23 13 -5 13 24 48 116 140 l123 123
91 0 91 0 58 -80z m222 23 c29 -32 49 -60 45 -63 -14 -12 -184 -41 -191 -33
-4 4 -31 41 -59 81 l-52 72 102 0 102 0 53 -57z m-3789 -218 l82 -70 -161 -3
c-155 -2 -163 -2 -186 19 -20 20 -23 31 -23 103 0 45 3 104 6 133 l7 52 96
-82 c53 -45 133 -113 179 -152z m4352 208 c0 -16 3 -44 6 -64 l6 -36 -153 -56
c-85 -32 -157 -57 -161 -57 -3 0 -4 9 -1 21 3 11 0 31 -7 43 -10 20 -8 31 14
74 17 33 34 54 49 57 114 26 197 43 220 44 23 1 27 -3 27 -26z m-3255 -34
c154 -17 282 -32 284 -34 2 -2 -1 -40 -5 -83 l-9 -80 -317 104 c-238 79 -318
109 -318 121 0 12 8 14 43 9 23 -3 168 -20 322 -37z m2955 -6 c-1 -5 -9 -23
-19 -42 -14 -27 -25 -34 -53 -37 -28 -2 -41 3 -63 26 l-28 29 24 6 c113 26
139 29 139 18z m-3004 -105 c173 -56 314 -106 314 -110 0 -4 -117 -9 -260 -10
-143 -1 -281 -2 -307 -3 l-47 0 -48 80 c-52 87 -54 95 -35 95 8 0 24 11 37 25
13 14 25 25 28 25 2 0 145 -46 318 -102z m569 54 c83 -9 150 -22 150 -27 0 -6
-11 -38 -25 -72 l-25 -63 -140 0 c-184 0 -185 1 -185 59 0 25 3 63 6 84 8 44
0 44 219 19z m2282 -14 c26 -25 33 -40 33 -69 0 -27 6 -42 21 -53 21 -15 21
-15 -12 -29 -55 -23 -140 -49 -144 -45 -14 14 -132 184 -130 186 6 6 150 40
175 41 15 1 37 -11 57 -31z m-1555 -69 c262 -29 476 -54 475 -56 -6 -5 -1069
-24 -1074 -19 -3 3 2 24 12 48 9 24 21 54 26 67 8 20 14 23 47 19 20 -3 252
-29 514 -59z m1372 -47 c44 -61 62 -94 54 -97 -7 -3 -98 -36 -203 -75 l-189
-70 -76 46 c-41 26 -105 66 -142 88 -64 39 -67 43 -62 71 4 17 7 30 8 31 10 7
533 110 537 105 4 -3 36 -48 73 -99z m646 96 c8 -63 87 -1004 85 -1006 -1 -1
-23 10 -48 25 -38 23 -89 89 -311 398 -146 204 -266 374 -268 378 -2 5 116 53
262 107 250 93 280 104 280 98z m2349 -92 c-6 -6 -307 -223 -699 -504 -195
-140 -362 -257 -370 -259 -33 -9 -41 21 -38 137 l3 112 360 170 c198 93 443
209 545 258 162 78 214 100 199 86z m-3801 -53 c-3 -15 -466 -303 -488 -303
-9 0 -713 230 -717 234 -2 2 2 17 8 34 10 29 15 32 52 33 130 5 725 15 920 17
208 2 228 1 225 -15z m-1547 -7 c2 -3 -8 -175 -23 -383 -14 -208 -27 -387 -27
-398 -1 -25 -75 -50 -90 -31 -13 17 -461 794 -461 800 0 3 114 7 253 9 138 1
273 3 298 5 25 1 48 0 50 -2z m192 -32 c61 -20 114 -38 115 -39 8 -8 -304
-745 -315 -745 -6 0 -15 5 -18 10 -6 10 42 771 50 798 7 20 49 14 168 -24z
m142 14 c-4 -13 -10 -26 -14 -30 -4 -5 -45 5 -91 21 l-85 29 98 1 c97 1 98 1
92 -21z m-941 -25 c34 -53 444 -766 451 -785 13 -33 -24 -23 -127 35 -89 50
-174 117 -520 410 -227 192 -414 354 -416 358 -2 5 124 10 280 12 156 1 289 3
295 5 7 1 24 -15 37 -35z m-276 -294 c202 -172 374 -318 382 -326 8 -9 -10 -1
-40 16 -825 467 -1070 607 -1070 613 0 5 81 8 180 8 l180 0 368 -311z m2468
296 c10 -8 33 -15 50 -15 l30 0 13 -121 c7 -67 9 -125 4 -129 -12 -11 -262
-100 -281 -100 -27 0 -302 94 -300 102 3 8 448 278 459 278 3 0 14 -7 25 -15z
m270 -67 c73 -46 130 -86 126 -89 -12 -10 -265 -100 -269 -95 -2 2 -10 57 -17
122 -11 106 -11 120 3 131 9 7 18 13 20 13 2 0 64 -37 137 -82z m824 -290
c283 -394 272 -378 239 -357 -37 25 -661 417 -777 489 -56 35 -100 65 -98 67
6 7 369 141 381 142 6 0 120 -153 255 -341z m-1651 91 c12 -4 -917 -569 -936
-569 -4 1 -22 13 -39 28 l-32 27 114 275 c63 151 132 318 155 371 l40 96 342
-112 c188 -61 348 -114 356 -116z m1462 -200 c396 -249 486 -309 514 -347 38
-49 39 -51 26 -71 -11 -18 -20 -15 -771 233 l-525 173 -12 99 c-6 54 -10 100
-9 102 2 2 278 106 294 111 2 1 220 -135 483 -300z m-1261 133 c136 -46 143
-49 115 -59 -141 -51 -1182 -436 -1190 -441 -5 -3 -7 -2 -3 3 16 18 904 545
918 545 9 0 81 -22 160 -48z m474 -38 c4 -47 5 -88 3 -91 -3 -2 -64 15 -136
38 -72 23 -130 44 -128 46 5 4 239 92 248 93 3 0 9 -39 13 -86z m-139 -70 c77
-26 143 -49 147 -53 5 -5 48 -378 48 -418 0 -10 -171 -13 -820 -13 l-820 0 -6
25 c-4 14 -4 28 -1 31 10 10 1273 473 1292 474 11 0 83 -21 160 -46z m2641
-228 c-13 -12 -25 -27 -27 -33 -4 -11 -943 -207 -961 -201 -4 2 219 109 495
239 l502 236 7 -109 c6 -104 5 -110 -16 -132z m-1836 -37 c338 -110 622 -205
630 -210 9 -5 -245 -9 -602 -9 -488 0 -618 3 -618 13 0 6 -9 91 -20 187 -22
196 -23 220 -12 220 4 0 284 -90 622 -201z m-2575 -112 c11 -9 17 -19 13 -23
-8 -7 -34 9 -83 51 l-30 27 40 -20 c22 -11 49 -27 60 -35z m3283 -29 c-7 -4
-21 0 -30 9 -28 26 -21 36 12 17 20 -12 26 -20 18 -26z m-1297 -253 c10 -82
16 -150 15 -150 0 0 -11 -8 -22 -18 -21 -17 -45 -13 -785 133 -420 82 -788
155 -816 161 -29 6 -53 15 -53 20 0 6 317 8 823 7 l822 -3 16 -150z m1224 146
c-7 -6 -967 -282 -1130 -325 -5 -1 -15 3 -22 10 -7 7 -18 14 -25 16 -11 4 -37
180 -38 266 l0 42 612 0 c341 0 608 -4 603 -9z"/>
</g>
</svg>
